<?xml version="1.0" encoding="utf-8" standalone="no"?>
<!DOCTYPE svg PUBLIC "-//W3C//DTD SVG 1.1//EN"
  "http://www.w3.org/Graphics/SVG/1.1/DTD/svg11.dtd">
<svg xmlns:xlink="http://www.w3.org/1999/xlink" width="1440pt" height="360pt" viewBox="0 0 1440 360" xmlns="http://www.w3.org/2000/svg" version="1.1">
 <metadata>
  <rdf:RDF xmlns:dc="http://purl.org/dc/elements/1.1/" xmlns:cc="http://creativecommons.org/ns#" xmlns:rdf="http://www.w3.org/1999/02/22-rdf-syntax-ns#">
   <cc:Work>
    <dc:type rdf:resource="http://purl.org/dc/dcmitype/StillImage"/>
    <dc:date>2023-12-23T22:37:35.595506</dc:date>
    <dc:format>image/svg+xml</dc:format>
    <dc:creator>
     <cc:Agent>
      <dc:title>Matplotlib v3.7.1, https://matplotlib.org/</dc:title>
     </cc:Agent>
    </dc:creator>
   </cc:Work>
  </rdf:RDF>
 </metadata>
 <defs>
  <style type="text/css">*{stroke-linejoin: round; stroke-linecap: butt}</style>
 </defs>
 <g id="figure_1">
  <g id="patch_1">
   <path d="M 0 360 
L 1440 360 
L 1440 0 
L 0 0 
z
" style="fill: #ffffff"/>
  </g>
  <g id="axes_1">
   <g id="patch_2">
    <path d="M 180 320.4 
L 1296 320.4 
L 1296 43.2 
L 180 43.2 
z
" style="fill: #ffffff"/>
   </g>
   <g id="patch_3">
    <path d="M 243.440875 320.4 
L 253.611757 320.4 
L 253.611757 217.046371 
L 243.440875 217.046371 
z
" clip-path="url(#p2e74f39d7f)" style="fill: #1f77b4"/>
   </g>
   <g id="patch_4">
    <path d="M 230.727273 320.4 
L 240.898154 320.4 
L 240.898154 236.006097 
L 230.727273 236.006097 
z
" clip-path="url(#p2e74f39d7f)" style="fill: #1f77b4"/>
   </g>
   <g id="patch_5">
    <path d="M 256.154477 320.4 
L 266.325359 320.4 
L 266.325359 259.358931 
L 256.154477 259.358931 
z
" clip-path="url(#p2e74f39d7f)" style="fill: #1f77b4"/>
   </g>
   <g id="patch_6">
    <path d="M 268.868079 320.4 
L 279.038961 320.4 
L 279.038961 283.405413 
L 268.868079 283.405413 
z
" clip-path="url(#p2e74f39d7f)" style="fill: #1f77b4"/>
   </g>
   <g id="patch_7">
    <path d="M 281.581681 320.4 
L 291.752563 320.4 
L 291.752563 299.590545 
L 281.581681 299.590545 
z
" clip-path="url(#p2e74f39d7f)" style="fill: #1f77b4"/>
   </g>
   <g id="patch_8">
    <path d="M 294.295284 320.4 
L 304.466165 320.4 
L 304.466165 309.995272 
L 294.295284 309.995272 
z
" clip-path="url(#p2e74f39d7f)" style="fill: #1f77b4"/>
   </g>
   <g id="patch_9">
    <path d="M 307.008886 320.4 
L 317.179768 320.4 
L 317.179768 315.082028 
L 307.008886 315.082028 
z
" clip-path="url(#p2e74f39d7f)" style="fill: #1f77b4"/>
   </g>
   <g id="patch_10">
    <path d="M 319.722488 320.4 
L 329.89337 320.4 
L 329.89337 317.162974 
L 319.722488 317.162974 
z
" clip-path="url(#p2e74f39d7f)" style="fill: #1f77b4"/>
   </g>
   <g id="patch_11">
    <path d="M 332.43609 320.4 
L 342.606972 320.4 
L 342.606972 318.550271 
L 332.43609 318.550271 
z
" clip-path="url(#p2e74f39d7f)" style="fill: #1f77b4"/>
   </g>
   <g id="patch_12">
    <path d="M 345.149692 320.4 
L 355.320574 320.4 
L 355.320574 319.243919 
L 345.149692 319.243919 
z
" clip-path="url(#p2e74f39d7f)" style="fill: #1f77b4"/>
   </g>
   <g id="patch_13">
    <path d="M 370.576897 320.4 
L 380.747779 320.4 
L 380.747779 319.706351 
L 370.576897 319.706351 
z
" clip-path="url(#p2e74f39d7f)" style="fill: #1f77b4"/>
   </g>
   <g id="patch_14">
    <path d="M 357.863295 320.4 
L 368.034176 320.4 
L 368.034176 319.706351 
L 357.863295 319.706351 
z
" clip-path="url(#p2e74f39d7f)" style="fill: #1f77b4"/>
   </g>
   <g id="patch_15">
    <path d="M 408.717703 320.4 
L 418.888585 320.4 
L 418.888585 320.168784 
L 408.717703 320.168784 
z
" clip-path="url(#p2e74f39d7f)" style="fill: #1f77b4"/>
   </g>
   <g id="patch_16">
    <path d="M 484.999316 320.4 
L 495.170198 320.4 
L 495.170198 320.168784 
L 484.999316 320.168784 
z
" clip-path="url(#p2e74f39d7f)" style="fill: #1f77b4"/>
   </g>
   <g id="patch_17">
    <path d="M 383.290499 320.4 
L 393.461381 320.4 
L 393.461381 320.168784 
L 383.290499 320.168784 
z
" clip-path="url(#p2e74f39d7f)" style="fill: #1f77b4"/>
   </g>
   <g id="patch_18">
    <path d="M 396.004101 320.4 
L 406.174983 320.4 
L 406.174983 320.4 
L 396.004101 320.4 
z
" clip-path="url(#p2e74f39d7f)" style="fill: #1f77b4"/>
   </g>
   <g id="patch_19">
    <path d="M 421.431306 320.4 
L 431.602187 320.4 
L 431.602187 320.4 
L 421.431306 320.4 
z
" clip-path="url(#p2e74f39d7f)" style="fill: #1f77b4"/>
   </g>
   <g id="patch_20">
    <path d="M 434.144908 320.4 
L 444.315789 320.4 
L 444.315789 320.4 
L 434.144908 320.4 
z
" clip-path="url(#p2e74f39d7f)" style="fill: #1f77b4"/>
   </g>
   <g id="patch_21">
    <path d="M 459.572112 320.4 
L 469.742994 320.4 
L 469.742994 320.4 
L 459.572112 320.4 
z
" clip-path="url(#p2e74f39d7f)" style="fill: #1f77b4"/>
   </g>
   <g id="patch_22">
    <path d="M 446.85851 320.4 
L 457.029392 320.4 
L 457.029392 320.4 
L 446.85851 320.4 
z
" clip-path="url(#p2e74f39d7f)" style="fill: #1f77b4"/>
   </g>
   <g id="patch_23">
    <path d="M 535.853725 320.4 
L 546.024607 320.4 
L 546.024607 320.4 
L 535.853725 320.4 
z
" clip-path="url(#p2e74f39d7f)" style="fill: #1f77b4"/>
   </g>
   <g id="patch_24">
    <path d="M 548.567327 320.4 
L 558.738209 320.4 
L 558.738209 320.4 
L 548.567327 320.4 
z
" clip-path="url(#p2e74f39d7f)" style="fill: #1f77b4"/>
   </g>
   <g id="patch_25">
    <path d="M 561.28093 320.4 
L 571.451811 320.4 
L 571.451811 320.4 
L 561.28093 320.4 
z
" clip-path="url(#p2e74f39d7f)" style="fill: #1f77b4"/>
   </g>
   <g id="patch_26">
    <path d="M 523.140123 320.4 
L 533.311005 320.4 
L 533.311005 320.4 
L 523.140123 320.4 
z
" clip-path="url(#p2e74f39d7f)" style="fill: #1f77b4"/>
   </g>
   <g id="patch_27">
    <path d="M 472.285714 320.4 
L 482.456596 320.4 
L 482.456596 320.4 
L 472.285714 320.4 
z
" clip-path="url(#p2e74f39d7f)" style="fill: #1f77b4"/>
   </g>
   <g id="patch_28">
    <path d="M 853.69378 320.4 
L 863.864662 320.4 
L 863.864662 320.4 
L 853.69378 320.4 
z
" clip-path="url(#p2e74f39d7f)" style="fill: #1f77b4"/>
   </g>
   <g id="patch_29">
    <path d="M 726.557758 320.4 
L 736.72864 320.4 
L 736.72864 320.4 
L 726.557758 320.4 
z
" clip-path="url(#p2e74f39d7f)" style="fill: #1f77b4"/>
   </g>
   <g id="patch_30">
    <path d="M 573.994532 320.4 
L 584.165414 320.4 
L 584.165414 320.4 
L 573.994532 320.4 
z
" clip-path="url(#p2e74f39d7f)" style="fill: #1f77b4"/>
   </g>
   <g id="patch_31">
    <path d="M 624.848941 320.4 
L 635.019822 320.4 
L 635.019822 320.4 
L 624.848941 320.4 
z
" clip-path="url(#p2e74f39d7f)" style="fill: #1f77b4"/>
   </g>
   <g id="patch_32">
    <path d="M 1044.397813 320.4 
L 1054.568694 320.4 
L 1054.568694 320.4 
L 1044.397813 320.4 
z
" clip-path="url(#p2e74f39d7f)" style="fill: #1f77b4"/>
   </g>
   <g id="patch_33">
    <path d="M 1057.111415 320.4 
L 1067.282297 320.4 
L 1067.282297 320.4 
L 1057.111415 320.4 
z
" clip-path="url(#p2e74f39d7f)" style="fill: #1f77b4"/>
   </g>
   <g id="patch_34">
    <path d="M 599.421736 320.4 
L 609.592618 320.4 
L 609.592618 320.4 
L 599.421736 320.4 
z
" clip-path="url(#p2e74f39d7f)" style="fill: #1f77b4"/>
   </g>
   <g id="patch_35">
    <path d="M 510.426521 320.4 
L 520.597403 320.4 
L 520.597403 320.4 
L 510.426521 320.4 
z
" clip-path="url(#p2e74f39d7f)" style="fill: #1f77b4"/>
   </g>
   <g id="patch_36">
    <path d="M 764.698565 320.4 
L 774.869446 320.4 
L 774.869446 320.4 
L 764.698565 320.4 
z
" clip-path="url(#p2e74f39d7f)" style="fill: #1f77b4"/>
   </g>
   <g id="patch_37">
    <path d="M 1235.101846 320.4 
L 1245.272727 320.4 
L 1245.272727 320.4 
L 1235.101846 320.4 
z
" clip-path="url(#p2e74f39d7f)" style="fill: #1f77b4"/>
   </g>
   <g id="patch_38">
    <path d="M 497.712919 320.4 
L 507.8838 320.4 
L 507.8838 320.4 
L 497.712919 320.4 
z
" clip-path="url(#p2e74f39d7f)" style="fill: #1f77b4"/>
   </g>
   <g id="patch_39">
    <path d="M 1107.965824 320.4 
L 1118.136705 320.4 
L 1118.136705 320.4 
L 1107.965824 320.4 
z
" clip-path="url(#p2e74f39d7f)" style="fill: #1f77b4"/>
   </g>
   <g id="patch_40">
    <path d="M 243.440875 217.046371 
L 253.611757 217.046371 
L 253.611757 151.176993 
L 243.440875 151.176993 
z
" clip-path="url(#p2e74f39d7f)" style="fill: #ff7f0e"/>
   </g>
   <g id="patch_41">
    <path d="M 230.727273 236.006097 
L 240.898154 236.006097 
L 240.898154 128.595764 
L 230.727273 128.595764 
z
" clip-path="url(#p2e74f39d7f)" style="fill: #ff7f0e"/>
   </g>
   <g id="patch_42">
    <path d="M 256.154477 259.358931 
L 266.325359 259.358931 
L 266.325359 196.814896 
L 256.154477 196.814896 
z
" clip-path="url(#p2e74f39d7f)" style="fill: #ff7f0e"/>
   </g>
   <g id="patch_43">
    <path d="M 268.868079 283.405413 
L 279.038961 283.405413 
L 279.038961 242.053985 
L 268.868079 242.053985 
z
" clip-path="url(#p2e74f39d7f)" style="fill: #ff7f0e"/>
   </g>
   <g id="patch_44">
    <path d="M 281.581681 299.590545 
L 291.752563 299.590545 
L 291.752563 281.912809 
L 281.581681 281.912809 
z
" clip-path="url(#p2e74f39d7f)" style="fill: #ff7f0e"/>
   </g>
   <g id="patch_45">
    <path d="M 294.295284 309.995272 
L 304.466165 309.995272 
L 304.466165 297.572614 
L 294.295284 297.572614 
z
" clip-path="url(#p2e74f39d7f)" style="fill: #ff7f0e"/>
   </g>
   <g id="patch_46">
    <path d="M 307.008886 315.082028 
L 317.179768 315.082028 
L 317.179768 307.345865 
L 307.008886 307.345865 
z
" clip-path="url(#p2e74f39d7f)" style="fill: #ff7f0e"/>
   </g>
   <g id="patch_47">
    <path d="M 319.722488 317.162974 
L 329.89337 317.162974 
L 329.89337 312.33864 
L 319.722488 312.33864 
z
" clip-path="url(#p2e74f39d7f)" style="fill: #ff7f0e"/>
   </g>
   <g id="patch_48">
    <path d="M 332.43609 318.550271 
L 342.606972 318.550271 
L 342.606972 315.104318 
L 332.43609 315.104318 
z
" clip-path="url(#p2e74f39d7f)" style="fill: #ff7f0e"/>
   </g>
   <g id="patch_49">
    <path d="M 345.149692 319.243919 
L 355.320574 319.243919 
L 355.320574 316.848982 
L 345.149692 316.848982 
z
" clip-path="url(#p2e74f39d7f)" style="fill: #ff7f0e"/>
   </g>
   <g id="patch_50">
    <path d="M 370.576897 319.706351 
L 380.747779 319.706351 
L 380.747779 318.638106 
L 370.576897 318.638106 
z
" clip-path="url(#p2e74f39d7f)" style="fill: #ff7f0e"/>
   </g>
   <g id="patch_51">
    <path d="M 357.863295 319.706351 
L 368.034176 319.706351 
L 368.034176 318.517498 
L 357.863295 318.517498 
z
" clip-path="url(#p2e74f39d7f)" style="fill: #ff7f0e"/>
   </g>
   <g id="patch_52">
    <path d="M 408.717703 320.168784 
L 418.888585 320.168784 
L 418.888585 319.910337 
L 408.717703 319.910337 
z
" clip-path="url(#p2e74f39d7f)" style="fill: #ff7f0e"/>
   </g>
   <g id="patch_53">
    <path d="M 484.999316 320.168784 
L 495.170198 320.168784 
L 495.170198 320.134324 
L 484.999316 320.134324 
z
" clip-path="url(#p2e74f39d7f)" style="fill: #ff7f0e"/>
   </g>
   <g id="patch_54">
    <path d="M 383.290499 320.168784 
L 393.461381 320.168784 
L 393.461381 319.445134 
L 383.290499 319.445134 
z
" clip-path="url(#p2e74f39d7f)" style="fill: #ff7f0e"/>
   </g>
   <g id="patch_55">
    <path d="M 396.004101 320.4 
L 406.174983 320.4 
L 406.174983 319.883107 
L 396.004101 319.883107 
z
" clip-path="url(#p2e74f39d7f)" style="fill: #ff7f0e"/>
   </g>
   <g id="patch_56">
    <path d="M 421.431306 320.4 
L 431.602187 320.4 
L 431.602187 320.107094 
L 421.431306 320.107094 
z
" clip-path="url(#p2e74f39d7f)" style="fill: #ff7f0e"/>
   </g>
   <g id="patch_57">
    <path d="M 434.144908 320.4 
L 444.315789 320.4 
L 444.315789 320.262162 
L 434.144908 320.262162 
z
" clip-path="url(#p2e74f39d7f)" style="fill: #ff7f0e"/>
   </g>
   <g id="patch_58">
    <path d="M 459.572112 320.4 
L 469.742994 320.4 
L 469.742994 320.279392 
L 459.572112 320.279392 
z
" clip-path="url(#p2e74f39d7f)" style="fill: #ff7f0e"/>
   </g>
   <g id="patch_59">
    <path d="M 446.85851 320.4 
L 457.029392 320.4 
L 457.029392 320.296621 
L 446.85851 320.296621 
z
" clip-path="url(#p2e74f39d7f)" style="fill: #ff7f0e"/>
   </g>
   <g id="patch_60">
    <path d="M 535.853725 320.4 
L 546.024607 320.4 
L 546.024607 320.348311 
L 535.853725 320.348311 
z
" clip-path="url(#p2e74f39d7f)" style="fill: #ff7f0e"/>
   </g>
   <g id="patch_61">
    <path d="M 548.567327 320.4 
L 558.738209 320.4 
L 558.738209 320.348311 
L 548.567327 320.348311 
z
" clip-path="url(#p2e74f39d7f)" style="fill: #ff7f0e"/>
   </g>
   <g id="patch_62">
    <path d="M 561.28093 320.4 
L 571.451811 320.4 
L 571.451811 320.348311 
L 561.28093 320.348311 
z
" clip-path="url(#p2e74f39d7f)" style="fill: #ff7f0e"/>
   </g>
   <g id="patch_63">
    <path d="M 523.140123 320.4 
L 533.311005 320.4 
L 533.311005 320.348311 
L 523.140123 320.348311 
z
" clip-path="url(#p2e74f39d7f)" style="fill: #ff7f0e"/>
   </g>
   <g id="patch_64">
    <path d="M 472.285714 320.4 
L 482.456596 320.4 
L 482.456596 320.348311 
L 472.285714 320.348311 
z
" clip-path="url(#p2e74f39d7f)" style="fill: #ff7f0e"/>
   </g>
   <g id="patch_65">
    <path d="M 853.69378 320.4 
L 863.864662 320.4 
L 863.864662 320.36554 
L 853.69378 320.36554 
z
" clip-path="url(#p2e74f39d7f)" style="fill: #ff7f0e"/>
   </g>
   <g id="patch_66">
    <path d="M 726.557758 320.4 
L 736.72864 320.4 
L 736.72864 320.36554 
L 726.557758 320.36554 
z
" clip-path="url(#p2e74f39d7f)" style="fill: #ff7f0e"/>
   </g>
   <g id="patch_67">
    <path d="M 573.994532 320.4 
L 584.165414 320.4 
L 584.165414 320.36554 
L 573.994532 320.36554 
z
" clip-path="url(#p2e74f39d7f)" style="fill: #ff7f0e"/>
   </g>
   <g id="patch_68">
    <path d="M 624.848941 320.4 
L 635.019822 320.4 
L 635.019822 320.36554 
L 624.848941 320.36554 
z
" clip-path="url(#p2e74f39d7f)" style="fill: #ff7f0e"/>
   </g>
   <g id="patch_69">
    <path d="M 1044.397813 320.4 
L 1054.568694 320.4 
L 1054.568694 320.38277 
L 1044.397813 320.38277 
z
" clip-path="url(#p2e74f39d7f)" style="fill: #ff7f0e"/>
   </g>
   <g id="patch_70">
    <path d="M 1057.111415 320.4 
L 1067.282297 320.4 
L 1067.282297 320.38277 
L 1057.111415 320.38277 
z
" clip-path="url(#p2e74f39d7f)" style="fill: #ff7f0e"/>
   </g>
   <g id="patch_71">
    <path d="M 599.421736 320.4 
L 609.592618 320.4 
L 609.592618 320.38277 
L 599.421736 320.38277 
z
" clip-path="url(#p2e74f39d7f)" style="fill: #ff7f0e"/>
   </g>
   <g id="patch_72">
    <path d="M 510.426521 320.4 
L 520.597403 320.4 
L 520.597403 320.38277 
L 510.426521 320.38277 
z
" clip-path="url(#p2e74f39d7f)" style="fill: #ff7f0e"/>
   </g>
   <g id="patch_73">
    <path d="M 764.698565 320.4 
L 774.869446 320.4 
L 774.869446 320.38277 
L 764.698565 320.38277 
z
" clip-path="url(#p2e74f39d7f)" style="fill: #ff7f0e"/>
   </g>
   <g id="patch_74">
    <path d="M 1235.101846 320.4 
L 1245.272727 320.4 
L 1245.272727 320.38277 
L 1235.101846 320.38277 
z
" clip-path="url(#p2e74f39d7f)" style="fill: #ff7f0e"/>
   </g>
   <g id="patch_75">
    <path d="M 497.712919 320.4 
L 507.8838 320.4 
L 507.8838 320.38277 
L 497.712919 320.38277 
z
" clip-path="url(#p2e74f39d7f)" style="fill: #ff7f0e"/>
   </g>
   <g id="patch_76">
    <path d="M 1107.965824 320.4 
L 1118.136705 320.4 
L 1118.136705 320.4 
L 1107.965824 320.4 
z
" clip-path="url(#p2e74f39d7f)" style="fill: #ff7f0e"/>
   </g>
   <g id="patch_77">
    <path d="M 243.440875 151.176993 
L 253.611757 151.176993 
L 253.611757 72.23025 
L 243.440875 72.23025 
z
" clip-path="url(#p2e74f39d7f)" style="fill: #2ca02c"/>
   </g>
   <g id="patch_78">
    <path d="M 230.727273 128.595764 
L 240.898154 128.595764 
L 240.898154 56.4 
L 230.727273 56.4 
z
" clip-path="url(#p2e74f39d7f)" style="fill: #2ca02c"/>
   </g>
   <g id="patch_79">
    <path d="M 256.154477 196.814896 
L 266.325359 196.814896 
L 266.325359 137.962244 
L 256.154477 137.962244 
z
" clip-path="url(#p2e74f39d7f)" style="fill: #2ca02c"/>
   </g>
   <g id="patch_80">
    <path d="M 268.868079 242.053985 
L 279.038961 242.053985 
L 279.038961 185.504608 
L 268.868079 185.504608 
z
" clip-path="url(#p2e74f39d7f)" style="fill: #2ca02c"/>
   </g>
   <g id="patch_81">
    <path d="M 281.581681 281.912809 
L 291.752563 281.912809 
L 291.752563 257.609285 
L 281.581681 257.609285 
z
" clip-path="url(#p2e74f39d7f)" style="fill: #2ca02c"/>
   </g>
   <g id="patch_82">
    <path d="M 294.295284 297.572614 
L 304.466165 297.572614 
L 304.466165 282.482191 
L 294.295284 282.482191 
z
" clip-path="url(#p2e74f39d7f)" style="fill: #2ca02c"/>
   </g>
   <g id="patch_83">
    <path d="M 307.008886 307.345865 
L 317.179768 307.345865 
L 317.179768 296.306029 
L 307.008886 296.306029 
z
" clip-path="url(#p2e74f39d7f)" style="fill: #2ca02c"/>
   </g>
   <g id="patch_84">
    <path d="M 319.722488 312.33864 
L 329.89337 312.33864 
L 329.89337 307.97036 
L 319.722488 307.97036 
z
" clip-path="url(#p2e74f39d7f)" style="fill: #2ca02c"/>
   </g>
   <g id="patch_85">
    <path d="M 332.43609 315.104318 
L 342.606972 315.104318 
L 342.606972 311.530271 
L 332.43609 311.530271 
z
" clip-path="url(#p2e74f39d7f)" style="fill: #2ca02c"/>
   </g>
   <g id="patch_86">
    <path d="M 345.149692 316.848982 
L 355.320574 316.848982 
L 355.320574 315.33994 
L 345.149692 315.33994 
z
" clip-path="url(#p2e74f39d7f)" style="fill: #2ca02c"/>
   </g>
   <g id="patch_87">
    <path d="M 370.576897 318.638106 
L 380.747779 318.638106 
L 380.747779 318.00272 
L 370.576897 318.00272 
z
" clip-path="url(#p2e74f39d7f)" style="fill: #2ca02c"/>
   </g>
   <g id="patch_88">
    <path d="M 357.863295 318.517498 
L 368.034176 318.517498 
L 368.034176 317.167302 
L 357.863295 317.167302 
z
" clip-path="url(#p2e74f39d7f)" style="fill: #2ca02c"/>
   </g>
   <g id="patch_89">
    <path d="M 408.717703 319.910337 
L 418.888585 319.910337 
L 418.888585 319.195528 
L 408.717703 319.195528 
z
" clip-path="url(#p2e74f39d7f)" style="fill: #2ca02c"/>
   </g>
   <g id="patch_90">
    <path d="M 484.999316 320.134324 
L 495.170198 320.134324 
L 495.170198 320.134324 
L 484.999316 320.134324 
z
" clip-path="url(#p2e74f39d7f)" style="fill: #2ca02c"/>
   </g>
   <g id="patch_91">
    <path d="M 383.290499 319.445134 
L 393.461381 319.445134 
L 393.461381 318.889171 
L 383.290499 318.889171 
z
" clip-path="url(#p2e74f39d7f)" style="fill: #2ca02c"/>
   </g>
   <g id="patch_92">
    <path d="M 396.004101 319.883107 
L 406.174983 319.883107 
L 406.174983 319.565414 
L 396.004101 319.565414 
z
" clip-path="url(#p2e74f39d7f)" style="fill: #2ca02c"/>
   </g>
   <g id="patch_93">
    <path d="M 421.431306 320.107094 
L 431.602187 320.107094 
L 431.602187 319.868824 
L 421.431306 319.868824 
z
" clip-path="url(#p2e74f39d7f)" style="fill: #2ca02c"/>
   </g>
   <g id="patch_94">
    <path d="M 434.144908 320.262162 
L 444.315789 320.262162 
L 444.315789 320.023892 
L 434.144908 320.023892 
z
" clip-path="url(#p2e74f39d7f)" style="fill: #2ca02c"/>
   </g>
   <g id="patch_95">
    <path d="M 459.572112 320.279392 
L 469.742994 320.279392 
L 469.742994 320.279392 
L 459.572112 320.279392 
z
" clip-path="url(#p2e74f39d7f)" style="fill: #2ca02c"/>
   </g>
   <g id="patch_96">
    <path d="M 446.85851 320.296621 
L 457.029392 320.296621 
L 457.029392 320.217198 
L 446.85851 320.217198 
z
" clip-path="url(#p2e74f39d7f)" style="fill: #2ca02c"/>
   </g>
   <g id="patch_97">
    <path d="M 535.853725 320.348311 
L 546.024607 320.348311 
L 546.024607 320.348311 
L 535.853725 320.348311 
z
" clip-path="url(#p2e74f39d7f)" style="fill: #2ca02c"/>
   </g>
   <g id="patch_98">
    <path d="M 548.567327 320.348311 
L 558.738209 320.348311 
L 558.738209 320.348311 
L 548.567327 320.348311 
z
" clip-path="url(#p2e74f39d7f)" style="fill: #2ca02c"/>
   </g>
   <g id="patch_99">
    <path d="M 561.28093 320.348311 
L 571.451811 320.348311 
L 571.451811 320.348311 
L 561.28093 320.348311 
z
" clip-path="url(#p2e74f39d7f)" style="fill: #2ca02c"/>
   </g>
   <g id="patch_100">
    <path d="M 523.140123 320.348311 
L 533.311005 320.348311 
L 533.311005 320.348311 
L 523.140123 320.348311 
z
" clip-path="url(#p2e74f39d7f)" style="fill: #2ca02c"/>
   </g>
   <g id="patch_101">
    <path d="M 472.285714 320.348311 
L 482.456596 320.348311 
L 482.456596 320.348311 
L 472.285714 320.348311 
z
" clip-path="url(#p2e74f39d7f)" style="fill: #2ca02c"/>
   </g>
   <g id="patch_102">
    <path d="M 853.69378 320.36554 
L 863.864662 320.36554 
L 863.864662 320.36554 
L 853.69378 320.36554 
z
" clip-path="url(#p2e74f39d7f)" style="fill: #2ca02c"/>
   </g>
   <g id="patch_103">
    <path d="M 726.557758 320.36554 
L 736.72864 320.36554 
L 736.72864 320.36554 
L 726.557758 320.36554 
z
" clip-path="url(#p2e74f39d7f)" style="fill: #2ca02c"/>
   </g>
   <g id="patch_104">
    <path d="M 573.994532 320.36554 
L 584.165414 320.36554 
L 584.165414 320.36554 
L 573.994532 320.36554 
z
" clip-path="url(#p2e74f39d7f)" style="fill: #2ca02c"/>
   </g>
   <g id="patch_105">
    <path d="M 624.848941 320.36554 
L 635.019822 320.36554 
L 635.019822 320.36554 
L 624.848941 320.36554 
z
" clip-path="url(#p2e74f39d7f)" style="fill: #2ca02c"/>
   </g>
   <g id="patch_106">
    <path d="M 1044.397813 320.38277 
L 1054.568694 320.38277 
L 1054.568694 320.38277 
L 1044.397813 320.38277 
z
" clip-path="url(#p2e74f39d7f)" style="fill: #2ca02c"/>
   </g>
   <g id="patch_107">
    <path d="M 1057.111415 320.38277 
L 1067.282297 320.38277 
L 1067.282297 320.38277 
L 1057.111415 320.38277 
z
" clip-path="url(#p2e74f39d7f)" style="fill: #2ca02c"/>
   </g>
   <g id="patch_108">
    <path d="M 599.421736 320.38277 
L 609.592618 320.38277 
L 609.592618 320.38277 
L 599.421736 320.38277 
z
" clip-path="url(#p2e74f39d7f)" style="fill: #2ca02c"/>
   </g>
   <g id="patch_109">
    <path d="M 510.426521 320.38277 
L 520.597403 320.38277 
L 520.597403 320.38277 
L 510.426521 320.38277 
z
" clip-path="url(#p2e74f39d7f)" style="fill: #2ca02c"/>
   </g>
   <g id="patch_110">
    <path d="M 764.698565 320.38277 
L 774.869446 320.38277 
L 774.869446 320.38277 
L 764.698565 320.38277 
z
" clip-path="url(#p2e74f39d7f)" style="fill: #2ca02c"/>
   </g>
   <g id="patch_111">
    <path d="M 1235.101846 320.38277 
L 1245.272727 320.38277 
L 1245.272727 320.38277 
L 1235.101846 320.38277 
z
" clip-path="url(#p2e74f39d7f)" style="fill: #2ca02c"/>
   </g>
   <g id="patch_112">
    <path d="M 497.712919 320.38277 
L 507.8838 320.38277 
L 507.8838 320.38277 
L 497.712919 320.38277 
z
" clip-path="url(#p2e74f39d7f)" style="fill: #2ca02c"/>
   </g>
   <g id="patch_113">
    <path d="M 1107.965824 320.4 
L 1118.136705 320.4 
L 1118.136705 320.320577 
L 1107.965824 320.320577 
z
" clip-path="url(#p2e74f39d7f)" style="fill: #2ca02c"/>
   </g>
   <g id="matplotlib.axis_1">
    <g id="xtick_1">
     <g id="line2d_1">
      <defs>
       <path id="mbbe58a290e" d="M 0 0 
L 0 3.5 
" style="stroke: #000000; stroke-width: 0.8"/>
      </defs>
      <g>
       <use xlink:href="#mbbe58a290e" x="248.526316" y="320.4" style="stroke: #000000; stroke-width: 0.8"/>
      </g>
     </g>
     <g id="text_1">
      <!-- 1 -->
      <g transform="translate(245.345066 334.998438) scale(0.1 -0.1)">
       <defs>
        <path id="DejaVuSans-31" d="M 794 531 
L 1825 531 
L 1825 4091 
L 703 3866 
L 703 4441 
L 1819 4666 
L 2450 4666 
L 2450 531 
L 3481 531 
L 3481 0 
L 794 0 
L 794 531 
z
" transform="scale(0.015625)"/>
       </defs>
       <use xlink:href="#DejaVuSans-31"/>
      </g>
     </g>
    </g>
    <g id="xtick_2">
     <g id="line2d_2">
      <g>
       <use xlink:href="#mbbe58a290e" x="235.812714" y="320.4" style="stroke: #000000; stroke-width: 0.8"/>
      </g>
     </g>
     <g id="text_2">
      <!-- 0 -->
      <g transform="translate(232.631464 334.998438) scale(0.1 -0.1)">
       <defs>
        <path id="DejaVuSans-30" d="M 2034 4250 
Q 1547 4250 1301 3770 
Q 1056 3291 1056 2328 
Q 1056 1369 1301 889 
Q 1547 409 2034 409 
Q 2525 409 2770 889 
Q 3016 1369 3016 2328 
Q 3016 3291 2770 3770 
Q 2525 4250 2034 4250 
z
M 2034 4750 
Q 2819 4750 3233 4129 
Q 3647 3509 3647 2328 
Q 3647 1150 3233 529 
Q 2819 -91 2034 -91 
Q 1250 -91 836 529 
Q 422 1150 422 2328 
Q 422 3509 836 4129 
Q 1250 4750 2034 4750 
z
" transform="scale(0.015625)"/>
       </defs>
       <use xlink:href="#DejaVuSans-30"/>
      </g>
     </g>
    </g>
    <g id="xtick_3">
     <g id="line2d_3">
      <g>
       <use xlink:href="#mbbe58a290e" x="261.239918" y="320.4" style="stroke: #000000; stroke-width: 0.8"/>
      </g>
     </g>
     <g id="text_3">
      <!-- 2 -->
      <g transform="translate(258.058668 334.998438) scale(0.1 -0.1)">
       <defs>
        <path id="DejaVuSans-32" d="M 1228 531 
L 3431 531 
L 3431 0 
L 469 0 
L 469 531 
Q 828 903 1448 1529 
Q 2069 2156 2228 2338 
Q 2531 2678 2651 2914 
Q 2772 3150 2772 3378 
Q 2772 3750 2511 3984 
Q 2250 4219 1831 4219 
Q 1534 4219 1204 4116 
Q 875 4013 500 3803 
L 500 4441 
Q 881 4594 1212 4672 
Q 1544 4750 1819 4750 
Q 2544 4750 2975 4387 
Q 3406 4025 3406 3419 
Q 3406 3131 3298 2873 
Q 3191 2616 2906 2266 
Q 2828 2175 2409 1742 
Q 1991 1309 1228 531 
z
" transform="scale(0.015625)"/>
       </defs>
       <use xlink:href="#DejaVuSans-32"/>
      </g>
     </g>
    </g>
    <g id="xtick_4">
     <g id="line2d_4">
      <g>
       <use xlink:href="#mbbe58a290e" x="273.95352" y="320.4" style="stroke: #000000; stroke-width: 0.8"/>
      </g>
     </g>
     <g id="text_4">
      <!-- 3 -->
      <g transform="translate(270.77227 334.998438) scale(0.1 -0.1)">
       <defs>
        <path id="DejaVuSans-33" d="M 2597 2516 
Q 3050 2419 3304 2112 
Q 3559 1806 3559 1356 
Q 3559 666 3084 287 
Q 2609 -91 1734 -91 
Q 1441 -91 1130 -33 
Q 819 25 488 141 
L 488 750 
Q 750 597 1062 519 
Q 1375 441 1716 441 
Q 2309 441 2620 675 
Q 2931 909 2931 1356 
Q 2931 1769 2642 2001 
Q 2353 2234 1838 2234 
L 1294 2234 
L 1294 2753 
L 1863 2753 
Q 2328 2753 2575 2939 
Q 2822 3125 2822 3475 
Q 2822 3834 2567 4026 
Q 2313 4219 1838 4219 
Q 1578 4219 1281 4162 
Q 984 4106 628 3988 
L 628 4550 
Q 988 4650 1302 4700 
Q 1616 4750 1894 4750 
Q 2613 4750 3031 4423 
Q 3450 4097 3450 3541 
Q 3450 3153 3228 2886 
Q 3006 2619 2597 2516 
z
" transform="scale(0.015625)"/>
       </defs>
       <use xlink:href="#DejaVuSans-33"/>
      </g>
     </g>
    </g>
    <g id="xtick_5">
     <g id="line2d_5">
      <g>
       <use xlink:href="#mbbe58a290e" x="286.667122" y="320.4" style="stroke: #000000; stroke-width: 0.8"/>
      </g>
     </g>
     <g id="text_5">
      <!-- 4 -->
      <g transform="translate(283.485872 334.998438) scale(0.1 -0.1)">
       <defs>
        <path id="DejaVuSans-34" d="M 2419 4116 
L 825 1625 
L 2419 1625 
L 2419 4116 
z
M 2253 4666 
L 3047 4666 
L 3047 1625 
L 3713 1625 
L 3713 1100 
L 3047 1100 
L 3047 0 
L 2419 0 
L 2419 1100 
L 313 1100 
L 313 1709 
L 2253 4666 
z
" transform="scale(0.015625)"/>
       </defs>
       <use xlink:href="#DejaVuSans-34"/>
      </g>
     </g>
    </g>
    <g id="xtick_6">
     <g id="line2d_6">
      <g>
       <use xlink:href="#mbbe58a290e" x="299.380725" y="320.4" style="stroke: #000000; stroke-width: 0.8"/>
      </g>
     </g>
     <g id="text_6">
      <!-- 5 -->
      <g transform="translate(296.199475 334.998438) scale(0.1 -0.1)">
       <defs>
        <path id="DejaVuSans-35" d="M 691 4666 
L 3169 4666 
L 3169 4134 
L 1269 4134 
L 1269 2991 
Q 1406 3038 1543 3061 
Q 1681 3084 1819 3084 
Q 2600 3084 3056 2656 
Q 3513 2228 3513 1497 
Q 3513 744 3044 326 
Q 2575 -91 1722 -91 
Q 1428 -91 1123 -41 
Q 819 9 494 109 
L 494 744 
Q 775 591 1075 516 
Q 1375 441 1709 441 
Q 2250 441 2565 725 
Q 2881 1009 2881 1497 
Q 2881 1984 2565 2268 
Q 2250 2553 1709 2553 
Q 1456 2553 1204 2497 
Q 953 2441 691 2322 
L 691 4666 
z
" transform="scale(0.015625)"/>
       </defs>
       <use xlink:href="#DejaVuSans-35"/>
      </g>
     </g>
    </g>
    <g id="xtick_7">
     <g id="line2d_7">
      <g>
       <use xlink:href="#mbbe58a290e" x="312.094327" y="320.4" style="stroke: #000000; stroke-width: 0.8"/>
      </g>
     </g>
     <g id="text_7">
      <!-- 6 -->
      <g transform="translate(308.913077 334.998438) scale(0.1 -0.1)">
       <defs>
        <path id="DejaVuSans-36" d="M 2113 2584 
Q 1688 2584 1439 2293 
Q 1191 2003 1191 1497 
Q 1191 994 1439 701 
Q 1688 409 2113 409 
Q 2538 409 2786 701 
Q 3034 994 3034 1497 
Q 3034 2003 2786 2293 
Q 2538 2584 2113 2584 
z
M 3366 4563 
L 3366 3988 
Q 3128 4100 2886 4159 
Q 2644 4219 2406 4219 
Q 1781 4219 1451 3797 
Q 1122 3375 1075 2522 
Q 1259 2794 1537 2939 
Q 1816 3084 2150 3084 
Q 2853 3084 3261 2657 
Q 3669 2231 3669 1497 
Q 3669 778 3244 343 
Q 2819 -91 2113 -91 
Q 1303 -91 875 529 
Q 447 1150 447 2328 
Q 447 3434 972 4092 
Q 1497 4750 2381 4750 
Q 2619 4750 2861 4703 
Q 3103 4656 3366 4563 
z
" transform="scale(0.015625)"/>
       </defs>
       <use xlink:href="#DejaVuSans-36"/>
      </g>
     </g>
    </g>
    <g id="xtick_8">
     <g id="line2d_8">
      <g>
       <use xlink:href="#mbbe58a290e" x="324.807929" y="320.4" style="stroke: #000000; stroke-width: 0.8"/>
      </g>
     </g>
     <g id="text_8">
      <!-- 7 -->
      <g transform="translate(321.626679 334.998438) scale(0.1 -0.1)">
       <defs>
        <path id="DejaVuSans-37" d="M 525 4666 
L 3525 4666 
L 3525 4397 
L 1831 0 
L 1172 0 
L 2766 4134 
L 525 4134 
L 525 4666 
z
" transform="scale(0.015625)"/>
       </defs>
       <use xlink:href="#DejaVuSans-37"/>
      </g>
     </g>
    </g>
    <g id="xtick_9">
     <g id="line2d_9">
      <g>
       <use xlink:href="#mbbe58a290e" x="337.521531" y="320.4" style="stroke: #000000; stroke-width: 0.8"/>
      </g>
     </g>
     <g id="text_9">
      <!-- 8 -->
      <g transform="translate(334.340281 334.998438) scale(0.1 -0.1)">
       <defs>
        <path id="DejaVuSans-38" d="M 2034 2216 
Q 1584 2216 1326 1975 
Q 1069 1734 1069 1313 
Q 1069 891 1326 650 
Q 1584 409 2034 409 
Q 2484 409 2743 651 
Q 3003 894 3003 1313 
Q 3003 1734 2745 1975 
Q 2488 2216 2034 2216 
z
M 1403 2484 
Q 997 2584 770 2862 
Q 544 3141 544 3541 
Q 544 4100 942 4425 
Q 1341 4750 2034 4750 
Q 2731 4750 3128 4425 
Q 3525 4100 3525 3541 
Q 3525 3141 3298 2862 
Q 3072 2584 2669 2484 
Q 3125 2378 3379 2068 
Q 3634 1759 3634 1313 
Q 3634 634 3220 271 
Q 2806 -91 2034 -91 
Q 1263 -91 848 271 
Q 434 634 434 1313 
Q 434 1759 690 2068 
Q 947 2378 1403 2484 
z
M 1172 3481 
Q 1172 3119 1398 2916 
Q 1625 2713 2034 2713 
Q 2441 2713 2670 2916 
Q 2900 3119 2900 3481 
Q 2900 3844 2670 4047 
Q 2441 4250 2034 4250 
Q 1625 4250 1398 4047 
Q 1172 3844 1172 3481 
z
" transform="scale(0.015625)"/>
       </defs>
       <use xlink:href="#DejaVuSans-38"/>
      </g>
     </g>
    </g>
    <g id="xtick_10">
     <g id="line2d_10">
      <g>
       <use xlink:href="#mbbe58a290e" x="350.235133" y="320.4" style="stroke: #000000; stroke-width: 0.8"/>
      </g>
     </g>
     <g id="text_10">
      <!-- 9 -->
      <g transform="translate(347.053883 334.998438) scale(0.1 -0.1)">
       <defs>
        <path id="DejaVuSans-39" d="M 703 97 
L 703 672 
Q 941 559 1184 500 
Q 1428 441 1663 441 
Q 2288 441 2617 861 
Q 2947 1281 2994 2138 
Q 2813 1869 2534 1725 
Q 2256 1581 1919 1581 
Q 1219 1581 811 2004 
Q 403 2428 403 3163 
Q 403 3881 828 4315 
Q 1253 4750 1959 4750 
Q 2769 4750 3195 4129 
Q 3622 3509 3622 2328 
Q 3622 1225 3098 567 
Q 2575 -91 1691 -91 
Q 1453 -91 1209 -44 
Q 966 3 703 97 
z
M 1959 2075 
Q 2384 2075 2632 2365 
Q 2881 2656 2881 3163 
Q 2881 3666 2632 3958 
Q 2384 4250 1959 4250 
Q 1534 4250 1286 3958 
Q 1038 3666 1038 3163 
Q 1038 2656 1286 2365 
Q 1534 2075 1959 2075 
z
" transform="scale(0.015625)"/>
       </defs>
       <use xlink:href="#DejaVuSans-39"/>
      </g>
     </g>
    </g>
    <g id="xtick_11">
     <g id="line2d_11">
      <g>
       <use xlink:href="#mbbe58a290e" x="375.662338" y="320.4" style="stroke: #000000; stroke-width: 0.8"/>
      </g>
     </g>
     <g id="text_11">
      <!-- 11 -->
      <g transform="translate(369.299838 334.998438) scale(0.1 -0.1)">
       <use xlink:href="#DejaVuSans-31"/>
       <use xlink:href="#DejaVuSans-31" x="63.623047"/>
      </g>
     </g>
    </g>
    <g id="xtick_12">
     <g id="line2d_12">
      <g>
       <use xlink:href="#mbbe58a290e" x="362.948735" y="320.4" style="stroke: #000000; stroke-width: 0.8"/>
      </g>
     </g>
     <g id="text_12">
      <!-- 10 -->
      <g transform="translate(356.586235 334.998438) scale(0.1 -0.1)">
       <use xlink:href="#DejaVuSans-31"/>
       <use xlink:href="#DejaVuSans-30" x="63.623047"/>
      </g>
     </g>
    </g>
    <g id="xtick_13">
     <g id="line2d_13">
      <g>
       <use xlink:href="#mbbe58a290e" x="413.803144" y="320.4" style="stroke: #000000; stroke-width: 0.8"/>
      </g>
     </g>
     <g id="text_13">
      <!-- 14 -->
      <g transform="translate(407.440644 334.998438) scale(0.1 -0.1)">
       <use xlink:href="#DejaVuSans-31"/>
       <use xlink:href="#DejaVuSans-34" x="63.623047"/>
      </g>
     </g>
    </g>
    <g id="xtick_14">
     <g id="line2d_14">
      <g>
       <use xlink:href="#mbbe58a290e" x="490.084757" y="320.4" style="stroke: #000000; stroke-width: 0.8"/>
      </g>
     </g>
     <g id="text_14">
      <!-- 20 -->
      <g transform="translate(483.722257 334.998438) scale(0.1 -0.1)">
       <use xlink:href="#DejaVuSans-32"/>
       <use xlink:href="#DejaVuSans-30" x="63.623047"/>
      </g>
     </g>
    </g>
    <g id="xtick_15">
     <g id="line2d_15">
      <g>
       <use xlink:href="#mbbe58a290e" x="388.37594" y="320.4" style="stroke: #000000; stroke-width: 0.8"/>
      </g>
     </g>
     <g id="text_15">
      <!-- 12 -->
      <g transform="translate(382.01344 334.998438) scale(0.1 -0.1)">
       <use xlink:href="#DejaVuSans-31"/>
       <use xlink:href="#DejaVuSans-32" x="63.623047"/>
      </g>
     </g>
    </g>
    <g id="xtick_16">
     <g id="line2d_16">
      <g>
       <use xlink:href="#mbbe58a290e" x="401.089542" y="320.4" style="stroke: #000000; stroke-width: 0.8"/>
      </g>
     </g>
     <g id="text_16">
      <!-- 13 -->
      <g transform="translate(394.727042 334.998438) scale(0.1 -0.1)">
       <use xlink:href="#DejaVuSans-31"/>
       <use xlink:href="#DejaVuSans-33" x="63.623047"/>
      </g>
     </g>
    </g>
    <g id="xtick_17">
     <g id="line2d_17">
      <g>
       <use xlink:href="#mbbe58a290e" x="426.516746" y="320.4" style="stroke: #000000; stroke-width: 0.8"/>
      </g>
     </g>
     <g id="text_17">
      <!-- 15 -->
      <g transform="translate(420.154246 334.998438) scale(0.1 -0.1)">
       <use xlink:href="#DejaVuSans-31"/>
       <use xlink:href="#DejaVuSans-35" x="63.623047"/>
      </g>
     </g>
    </g>
    <g id="xtick_18">
     <g id="line2d_18">
      <g>
       <use xlink:href="#mbbe58a290e" x="439.230349" y="320.4" style="stroke: #000000; stroke-width: 0.8"/>
      </g>
     </g>
     <g id="text_18">
      <!-- 16 -->
      <g transform="translate(432.867849 334.998438) scale(0.1 -0.1)">
       <use xlink:href="#DejaVuSans-31"/>
       <use xlink:href="#DejaVuSans-36" x="63.623047"/>
      </g>
     </g>
    </g>
    <g id="xtick_19">
     <g id="line2d_19">
      <g>
       <use xlink:href="#mbbe58a290e" x="464.657553" y="320.4" style="stroke: #000000; stroke-width: 0.8"/>
      </g>
     </g>
     <g id="text_19">
      <!-- 18 -->
      <g transform="translate(458.295053 334.998438) scale(0.1 -0.1)">
       <use xlink:href="#DejaVuSans-31"/>
       <use xlink:href="#DejaVuSans-38" x="63.623047"/>
      </g>
     </g>
    </g>
    <g id="xtick_20">
     <g id="line2d_20">
      <g>
       <use xlink:href="#mbbe58a290e" x="451.943951" y="320.4" style="stroke: #000000; stroke-width: 0.8"/>
      </g>
     </g>
     <g id="text_20">
      <!-- 17 -->
      <g transform="translate(445.581451 334.998438) scale(0.1 -0.1)">
       <use xlink:href="#DejaVuSans-31"/>
       <use xlink:href="#DejaVuSans-37" x="63.623047"/>
      </g>
     </g>
    </g>
    <g id="xtick_21">
     <g id="line2d_21">
      <g>
       <use xlink:href="#mbbe58a290e" x="540.939166" y="320.4" style="stroke: #000000; stroke-width: 0.8"/>
      </g>
     </g>
     <g id="text_21">
      <!-- 24 -->
      <g transform="translate(534.576666 334.998438) scale(0.1 -0.1)">
       <use xlink:href="#DejaVuSans-32"/>
       <use xlink:href="#DejaVuSans-34" x="63.623047"/>
      </g>
     </g>
    </g>
    <g id="xtick_22">
     <g id="line2d_22">
      <g>
       <use xlink:href="#mbbe58a290e" x="553.652768" y="320.4" style="stroke: #000000; stroke-width: 0.8"/>
      </g>
     </g>
     <g id="text_22">
      <!-- 25 -->
      <g transform="translate(547.290268 334.998438) scale(0.1 -0.1)">
       <use xlink:href="#DejaVuSans-32"/>
       <use xlink:href="#DejaVuSans-35" x="63.623047"/>
      </g>
     </g>
    </g>
    <g id="xtick_23">
     <g id="line2d_23">
      <g>
       <use xlink:href="#mbbe58a290e" x="566.36637" y="320.4" style="stroke: #000000; stroke-width: 0.8"/>
      </g>
     </g>
     <g id="text_23">
      <!-- 26 -->
      <g transform="translate(560.00387 334.998438) scale(0.1 -0.1)">
       <use xlink:href="#DejaVuSans-32"/>
       <use xlink:href="#DejaVuSans-36" x="63.623047"/>
      </g>
     </g>
    </g>
    <g id="xtick_24">
     <g id="line2d_24">
      <g>
       <use xlink:href="#mbbe58a290e" x="528.225564" y="320.4" style="stroke: #000000; stroke-width: 0.8"/>
      </g>
     </g>
     <g id="text_24">
      <!-- 23 -->
      <g transform="translate(521.863064 334.998438) scale(0.1 -0.1)">
       <use xlink:href="#DejaVuSans-32"/>
       <use xlink:href="#DejaVuSans-33" x="63.623047"/>
      </g>
     </g>
    </g>
    <g id="xtick_25">
     <g id="line2d_25">
      <g>
       <use xlink:href="#mbbe58a290e" x="477.371155" y="320.4" style="stroke: #000000; stroke-width: 0.8"/>
      </g>
     </g>
     <g id="text_25">
      <!-- 19 -->
      <g transform="translate(471.008655 334.998438) scale(0.1 -0.1)">
       <use xlink:href="#DejaVuSans-31"/>
       <use xlink:href="#DejaVuSans-39" x="63.623047"/>
      </g>
     </g>
    </g>
    <g id="xtick_26">
     <g id="line2d_26">
      <g>
       <use xlink:href="#mbbe58a290e" x="858.779221" y="320.4" style="stroke: #000000; stroke-width: 0.8"/>
      </g>
     </g>
     <g id="text_26">
      <!-- 49 -->
      <g transform="translate(852.416721 334.998438) scale(0.1 -0.1)">
       <use xlink:href="#DejaVuSans-34"/>
       <use xlink:href="#DejaVuSans-39" x="63.623047"/>
      </g>
     </g>
    </g>
    <g id="xtick_27">
     <g id="line2d_27">
      <g>
       <use xlink:href="#mbbe58a290e" x="731.643199" y="320.4" style="stroke: #000000; stroke-width: 0.8"/>
      </g>
     </g>
     <g id="text_27">
      <!-- 39 -->
      <g transform="translate(725.280699 334.998438) scale(0.1 -0.1)">
       <use xlink:href="#DejaVuSans-33"/>
       <use xlink:href="#DejaVuSans-39" x="63.623047"/>
      </g>
     </g>
    </g>
    <g id="xtick_28">
     <g id="line2d_28">
      <g>
       <use xlink:href="#mbbe58a290e" x="579.079973" y="320.4" style="stroke: #000000; stroke-width: 0.8"/>
      </g>
     </g>
     <g id="text_28">
      <!-- 27 -->
      <g transform="translate(572.717473 334.998438) scale(0.1 -0.1)">
       <use xlink:href="#DejaVuSans-32"/>
       <use xlink:href="#DejaVuSans-37" x="63.623047"/>
      </g>
     </g>
    </g>
    <g id="xtick_29">
     <g id="line2d_29">
      <g>
       <use xlink:href="#mbbe58a290e" x="629.934381" y="320.4" style="stroke: #000000; stroke-width: 0.8"/>
      </g>
     </g>
     <g id="text_29">
      <!-- 31 -->
      <g transform="translate(623.571881 334.998438) scale(0.1 -0.1)">
       <use xlink:href="#DejaVuSans-33"/>
       <use xlink:href="#DejaVuSans-31" x="63.623047"/>
      </g>
     </g>
    </g>
    <g id="xtick_30">
     <g id="line2d_30">
      <g>
       <use xlink:href="#mbbe58a290e" x="1049.483254" y="320.4" style="stroke: #000000; stroke-width: 0.8"/>
      </g>
     </g>
     <g id="text_30">
      <!-- 64 -->
      <g transform="translate(1043.120754 334.998438) scale(0.1 -0.1)">
       <use xlink:href="#DejaVuSans-36"/>
       <use xlink:href="#DejaVuSans-34" x="63.623047"/>
      </g>
     </g>
    </g>
    <g id="xtick_31">
     <g id="line2d_31">
      <g>
       <use xlink:href="#mbbe58a290e" x="1062.196856" y="320.4" style="stroke: #000000; stroke-width: 0.8"/>
      </g>
     </g>
     <g id="text_31">
      <!-- 65 -->
      <g transform="translate(1055.834356 334.998438) scale(0.1 -0.1)">
       <use xlink:href="#DejaVuSans-36"/>
       <use xlink:href="#DejaVuSans-35" x="63.623047"/>
      </g>
     </g>
    </g>
    <g id="xtick_32">
     <g id="line2d_32">
      <g>
       <use xlink:href="#mbbe58a290e" x="604.507177" y="320.4" style="stroke: #000000; stroke-width: 0.8"/>
      </g>
     </g>
     <g id="text_32">
      <!-- 29 -->
      <g transform="translate(598.144677 334.998438) scale(0.1 -0.1)">
       <use xlink:href="#DejaVuSans-32"/>
       <use xlink:href="#DejaVuSans-39" x="63.623047"/>
      </g>
     </g>
    </g>
    <g id="xtick_33">
     <g id="line2d_33">
      <g>
       <use xlink:href="#mbbe58a290e" x="515.511962" y="320.4" style="stroke: #000000; stroke-width: 0.8"/>
      </g>
     </g>
     <g id="text_33">
      <!-- 22 -->
      <g transform="translate(509.149462 334.998438) scale(0.1 -0.1)">
       <use xlink:href="#DejaVuSans-32"/>
       <use xlink:href="#DejaVuSans-32" x="63.623047"/>
      </g>
     </g>
    </g>
    <g id="xtick_34">
     <g id="line2d_34">
      <g>
       <use xlink:href="#mbbe58a290e" x="769.784005" y="320.4" style="stroke: #000000; stroke-width: 0.8"/>
      </g>
     </g>
     <g id="text_34">
      <!-- 42 -->
      <g transform="translate(763.421505 334.998438) scale(0.1 -0.1)">
       <use xlink:href="#DejaVuSans-34"/>
       <use xlink:href="#DejaVuSans-32" x="63.623047"/>
      </g>
     </g>
    </g>
    <g id="xtick_35">
     <g id="line2d_35">
      <g>
       <use xlink:href="#mbbe58a290e" x="1240.187286" y="320.4" style="stroke: #000000; stroke-width: 0.8"/>
      </g>
     </g>
     <g id="text_35">
      <!-- 79 -->
      <g transform="translate(1233.824786 334.998438) scale(0.1 -0.1)">
       <use xlink:href="#DejaVuSans-37"/>
       <use xlink:href="#DejaVuSans-39" x="63.623047"/>
      </g>
     </g>
    </g>
    <g id="xtick_36">
     <g id="line2d_36">
      <g>
       <use xlink:href="#mbbe58a290e" x="502.79836" y="320.4" style="stroke: #000000; stroke-width: 0.8"/>
      </g>
     </g>
     <g id="text_36">
      <!-- 21 -->
      <g transform="translate(496.43586 334.998438) scale(0.1 -0.1)">
       <use xlink:href="#DejaVuSans-32"/>
       <use xlink:href="#DejaVuSans-31" x="63.623047"/>
      </g>
     </g>
    </g>
    <g id="xtick_37">
     <g id="line2d_37">
      <g>
       <use xlink:href="#mbbe58a290e" x="1113.051265" y="320.4" style="stroke: #000000; stroke-width: 0.8"/>
      </g>
     </g>
     <g id="text_37">
      <!-- 69 -->
      <g transform="translate(1106.688765 334.998438) scale(0.1 -0.1)">
       <use xlink:href="#DejaVuSans-36"/>
       <use xlink:href="#DejaVuSans-39" x="63.623047"/>
      </g>
     </g>
    </g>
    <g id="text_38">
     <!-- directivity -->
     <g transform="translate(713.050781 348.676562) scale(0.1 -0.1)">
      <defs>
       <path id="DejaVuSans-64" d="M 2906 2969 
L 2906 4863 
L 3481 4863 
L 3481 0 
L 2906 0 
L 2906 525 
Q 2725 213 2448 61 
Q 2172 -91 1784 -91 
Q 1150 -91 751 415 
Q 353 922 353 1747 
Q 353 2572 751 3078 
Q 1150 3584 1784 3584 
Q 2172 3584 2448 3432 
Q 2725 3281 2906 2969 
z
M 947 1747 
Q 947 1113 1208 752 
Q 1469 391 1925 391 
Q 2381 391 2643 752 
Q 2906 1113 2906 1747 
Q 2906 2381 2643 2742 
Q 2381 3103 1925 3103 
Q 1469 3103 1208 2742 
Q 947 2381 947 1747 
z
" transform="scale(0.015625)"/>
       <path id="DejaVuSans-69" d="M 603 3500 
L 1178 3500 
L 1178 0 
L 603 0 
L 603 3500 
z
M 603 4863 
L 1178 4863 
L 1178 4134 
L 603 4134 
L 603 4863 
z
" transform="scale(0.015625)"/>
       <path id="DejaVuSans-72" d="M 2631 2963 
Q 2534 3019 2420 3045 
Q 2306 3072 2169 3072 
Q 1681 3072 1420 2755 
Q 1159 2438 1159 1844 
L 1159 0 
L 581 0 
L 581 3500 
L 1159 3500 
L 1159 2956 
Q 1341 3275 1631 3429 
Q 1922 3584 2338 3584 
Q 2397 3584 2469 3576 
Q 2541 3569 2628 3553 
L 2631 2963 
z
" transform="scale(0.015625)"/>
       <path id="DejaVuSans-65" d="M 3597 1894 
L 3597 1613 
L 953 1613 
Q 991 1019 1311 708 
Q 1631 397 2203 397 
Q 2534 397 2845 478 
Q 3156 559 3463 722 
L 3463 178 
Q 3153 47 2828 -22 
Q 2503 -91 2169 -91 
Q 1331 -91 842 396 
Q 353 884 353 1716 
Q 353 2575 817 3079 
Q 1281 3584 2069 3584 
Q 2775 3584 3186 3129 
Q 3597 2675 3597 1894 
z
M 3022 2063 
Q 3016 2534 2758 2815 
Q 2500 3097 2075 3097 
Q 1594 3097 1305 2825 
Q 1016 2553 972 2059 
L 3022 2063 
z
" transform="scale(0.015625)"/>
       <path id="DejaVuSans-63" d="M 3122 3366 
L 3122 2828 
Q 2878 2963 2633 3030 
Q 2388 3097 2138 3097 
Q 1578 3097 1268 2742 
Q 959 2388 959 1747 
Q 959 1106 1268 751 
Q 1578 397 2138 397 
Q 2388 397 2633 464 
Q 2878 531 3122 666 
L 3122 134 
Q 2881 22 2623 -34 
Q 2366 -91 2075 -91 
Q 1284 -91 818 406 
Q 353 903 353 1747 
Q 353 2603 823 3093 
Q 1294 3584 2113 3584 
Q 2378 3584 2631 3529 
Q 2884 3475 3122 3366 
z
" transform="scale(0.015625)"/>
       <path id="DejaVuSans-74" d="M 1172 4494 
L 1172 3500 
L 2356 3500 
L 2356 3053 
L 1172 3053 
L 1172 1153 
Q 1172 725 1289 603 
Q 1406 481 1766 481 
L 2356 481 
L 2356 0 
L 1766 0 
Q 1100 0 847 248 
Q 594 497 594 1153 
L 594 3053 
L 172 3053 
L 172 3500 
L 594 3500 
L 594 4494 
L 1172 4494 
z
" transform="scale(0.015625)"/>
       <path id="DejaVuSans-76" d="M 191 3500 
L 800 3500 
L 1894 563 
L 2988 3500 
L 3597 3500 
L 2284 0 
L 1503 0 
L 191 3500 
z
" transform="scale(0.015625)"/>
       <path id="DejaVuSans-79" d="M 2059 -325 
Q 1816 -950 1584 -1140 
Q 1353 -1331 966 -1331 
L 506 -1331 
L 506 -850 
L 844 -850 
Q 1081 -850 1212 -737 
Q 1344 -625 1503 -206 
L 1606 56 
L 191 3500 
L 800 3500 
L 1894 763 
L 2988 3500 
L 3597 3500 
L 2059 -325 
z
" transform="scale(0.015625)"/>
      </defs>
      <use xlink:href="#DejaVuSans-64"/>
      <use xlink:href="#DejaVuSans-69" x="63.476562"/>
      <use xlink:href="#DejaVuSans-72" x="91.259766"/>
      <use xlink:href="#DejaVuSans-65" x="130.123047"/>
      <use xlink:href="#DejaVuSans-63" x="191.646484"/>
      <use xlink:href="#DejaVuSans-74" x="246.626953"/>
      <use xlink:href="#DejaVuSans-69" x="285.835938"/>
      <use xlink:href="#DejaVuSans-76" x="313.619141"/>
      <use xlink:href="#DejaVuSans-69" x="372.798828"/>
      <use xlink:href="#DejaVuSans-74" x="400.582031"/>
      <use xlink:href="#DejaVuSans-79" x="439.791016"/>
     </g>
    </g>
   </g>
   <g id="matplotlib.axis_2">
    <g id="ytick_1">
     <g id="line2d_38">
      <defs>
       <path id="m8d9c93f916" d="M 0 0 
L -3.5 0 
" style="stroke: #000000; stroke-width: 0.8"/>
      </defs>
      <g>
       <use xlink:href="#m8d9c93f916" x="180" y="320.4" style="stroke: #000000; stroke-width: 0.8"/>
      </g>
     </g>
     <g id="text_39">
      <!-- 0.0 -->
      <g transform="translate(157.096875 324.199219) scale(0.1 -0.1)">
       <defs>
        <path id="DejaVuSans-2e" d="M 684 794 
L 1344 794 
L 1344 0 
L 684 0 
L 684 794 
z
" transform="scale(0.015625)"/>
       </defs>
       <use xlink:href="#DejaVuSans-30"/>
       <use xlink:href="#DejaVuSans-2e" x="63.623047"/>
       <use xlink:href="#DejaVuSans-30" x="95.410156"/>
      </g>
     </g>
    </g>
    <g id="ytick_2">
     <g id="line2d_39">
      <g>
       <use xlink:href="#m8d9c93f916" x="180" y="287.336088" style="stroke: #000000; stroke-width: 0.8"/>
      </g>
     </g>
     <g id="text_40">
      <!-- 0.1 -->
      <g transform="translate(157.096875 291.135306) scale(0.1 -0.1)">
       <use xlink:href="#DejaVuSans-30"/>
       <use xlink:href="#DejaVuSans-2e" x="63.623047"/>
       <use xlink:href="#DejaVuSans-31" x="95.410156"/>
      </g>
     </g>
    </g>
    <g id="ytick_3">
     <g id="line2d_40">
      <g>
       <use xlink:href="#m8d9c93f916" x="180" y="254.272175" style="stroke: #000000; stroke-width: 0.8"/>
      </g>
     </g>
     <g id="text_41">
      <!-- 0.2 -->
      <g transform="translate(157.096875 258.071394) scale(0.1 -0.1)">
       <use xlink:href="#DejaVuSans-30"/>
       <use xlink:href="#DejaVuSans-2e" x="63.623047"/>
       <use xlink:href="#DejaVuSans-32" x="95.410156"/>
      </g>
     </g>
    </g>
    <g id="ytick_4">
     <g id="line2d_41">
      <g>
       <use xlink:href="#m8d9c93f916" x="180" y="221.208263" style="stroke: #000000; stroke-width: 0.8"/>
      </g>
     </g>
     <g id="text_42">
      <!-- 0.3 -->
      <g transform="translate(157.096875 225.007481) scale(0.1 -0.1)">
       <use xlink:href="#DejaVuSans-30"/>
       <use xlink:href="#DejaVuSans-2e" x="63.623047"/>
       <use xlink:href="#DejaVuSans-33" x="95.410156"/>
      </g>
     </g>
    </g>
    <g id="ytick_5">
     <g id="line2d_42">
      <g>
       <use xlink:href="#m8d9c93f916" x="180" y="188.14435" style="stroke: #000000; stroke-width: 0.8"/>
      </g>
     </g>
     <g id="text_43">
      <!-- 0.4 -->
      <g transform="translate(157.096875 191.943569) scale(0.1 -0.1)">
       <use xlink:href="#DejaVuSans-30"/>
       <use xlink:href="#DejaVuSans-2e" x="63.623047"/>
       <use xlink:href="#DejaVuSans-34" x="95.410156"/>
      </g>
     </g>
    </g>
    <g id="ytick_6">
     <g id="line2d_43">
      <g>
       <use xlink:href="#m8d9c93f916" x="180" y="155.080438" style="stroke: #000000; stroke-width: 0.8"/>
      </g>
     </g>
     <g id="text_44">
      <!-- 0.5 -->
      <g transform="translate(157.096875 158.879656) scale(0.1 -0.1)">
       <use xlink:href="#DejaVuSans-30"/>
       <use xlink:href="#DejaVuSans-2e" x="63.623047"/>
       <use xlink:href="#DejaVuSans-35" x="95.410156"/>
      </g>
     </g>
    </g>
    <g id="ytick_7">
     <g id="line2d_44">
      <g>
       <use xlink:href="#m8d9c93f916" x="180" y="122.016525" style="stroke: #000000; stroke-width: 0.8"/>
      </g>
     </g>
     <g id="text_45">
      <!-- 0.6 -->
      <g transform="translate(157.096875 125.815744) scale(0.1 -0.1)">
       <use xlink:href="#DejaVuSans-30"/>
       <use xlink:href="#DejaVuSans-2e" x="63.623047"/>
       <use xlink:href="#DejaVuSans-36" x="95.410156"/>
      </g>
     </g>
    </g>
    <g id="ytick_8">
     <g id="line2d_45">
      <g>
       <use xlink:href="#m8d9c93f916" x="180" y="88.952613" style="stroke: #000000; stroke-width: 0.8"/>
      </g>
     </g>
     <g id="text_46">
      <!-- 0.7 -->
      <g transform="translate(157.096875 92.751831) scale(0.1 -0.1)">
       <use xlink:href="#DejaVuSans-30"/>
       <use xlink:href="#DejaVuSans-2e" x="63.623047"/>
       <use xlink:href="#DejaVuSans-37" x="95.410156"/>
      </g>
     </g>
    </g>
    <g id="ytick_9">
     <g id="line2d_46">
      <g>
       <use xlink:href="#m8d9c93f916" x="180" y="55.8887" style="stroke: #000000; stroke-width: 0.8"/>
      </g>
     </g>
     <g id="text_47">
      <!-- 0.8 -->
      <g transform="translate(157.096875 59.687919) scale(0.1 -0.1)">
       <use xlink:href="#DejaVuSans-30"/>
       <use xlink:href="#DejaVuSans-2e" x="63.623047"/>
       <use xlink:href="#DejaVuSans-38" x="95.410156"/>
      </g>
     </g>
    </g>
    <g id="text_48">
     <!-- frequency -->
     <g transform="translate(151.017188 206.876562) rotate(-90) scale(0.1 -0.1)">
      <defs>
       <path id="DejaVuSans-66" d="M 2375 4863 
L 2375 4384 
L 1825 4384 
Q 1516 4384 1395 4259 
Q 1275 4134 1275 3809 
L 1275 3500 
L 2222 3500 
L 2222 3053 
L 1275 3053 
L 1275 0 
L 697 0 
L 697 3053 
L 147 3053 
L 147 3500 
L 697 3500 
L 697 3744 
Q 697 4328 969 4595 
Q 1241 4863 1831 4863 
L 2375 4863 
z
" transform="scale(0.015625)"/>
       <path id="DejaVuSans-71" d="M 947 1747 
Q 947 1113 1208 752 
Q 1469 391 1925 391 
Q 2381 391 2643 752 
Q 2906 1113 2906 1747 
Q 2906 2381 2643 2742 
Q 2381 3103 1925 3103 
Q 1469 3103 1208 2742 
Q 947 2381 947 1747 
z
M 2906 525 
Q 2725 213 2448 61 
Q 2172 -91 1784 -91 
Q 1150 -91 751 415 
Q 353 922 353 1747 
Q 353 2572 751 3078 
Q 1150 3584 1784 3584 
Q 2172 3584 2448 3432 
Q 2725 3281 2906 2969 
L 2906 3500 
L 3481 3500 
L 3481 -1331 
L 2906 -1331 
L 2906 525 
z
" transform="scale(0.015625)"/>
       <path id="DejaVuSans-75" d="M 544 1381 
L 544 3500 
L 1119 3500 
L 1119 1403 
Q 1119 906 1312 657 
Q 1506 409 1894 409 
Q 2359 409 2629 706 
Q 2900 1003 2900 1516 
L 2900 3500 
L 3475 3500 
L 3475 0 
L 2900 0 
L 2900 538 
Q 2691 219 2414 64 
Q 2138 -91 1772 -91 
Q 1169 -91 856 284 
Q 544 659 544 1381 
z
M 1991 3584 
L 1991 3584 
z
" transform="scale(0.015625)"/>
       <path id="DejaVuSans-6e" d="M 3513 2113 
L 3513 0 
L 2938 0 
L 2938 2094 
Q 2938 2591 2744 2837 
Q 2550 3084 2163 3084 
Q 1697 3084 1428 2787 
Q 1159 2491 1159 1978 
L 1159 0 
L 581 0 
L 581 3500 
L 1159 3500 
L 1159 2956 
Q 1366 3272 1645 3428 
Q 1925 3584 2291 3584 
Q 2894 3584 3203 3211 
Q 3513 2838 3513 2113 
z
" transform="scale(0.015625)"/>
      </defs>
      <use xlink:href="#DejaVuSans-66"/>
      <use xlink:href="#DejaVuSans-72" x="35.205078"/>
      <use xlink:href="#DejaVuSans-65" x="74.068359"/>
      <use xlink:href="#DejaVuSans-71" x="135.591797"/>
      <use xlink:href="#DejaVuSans-75" x="199.068359"/>
      <use xlink:href="#DejaVuSans-65" x="262.447266"/>
      <use xlink:href="#DejaVuSans-6e" x="323.970703"/>
      <use xlink:href="#DejaVuSans-63" x="387.349609"/>
      <use xlink:href="#DejaVuSans-79" x="442.330078"/>
     </g>
    </g>
   </g>
   <g id="patch_114">
    <path d="M 180 320.4 
L 180 43.2 
" style="fill: none; stroke: #000000; stroke-width: 0.8; stroke-linejoin: miter; stroke-linecap: square"/>
   </g>
   <g id="patch_115">
    <path d="M 1296 320.4 
L 1296 43.2 
" style="fill: none; stroke: #000000; stroke-width: 0.8; stroke-linejoin: miter; stroke-linecap: square"/>
   </g>
   <g id="patch_116">
    <path d="M 180 320.4 
L 1296 320.4 
" style="fill: none; stroke: #000000; stroke-width: 0.8; stroke-linejoin: miter; stroke-linecap: square"/>
   </g>
   <g id="patch_117">
    <path d="M 180 43.2 
L 1296 43.2 
" style="fill: none; stroke: #000000; stroke-width: 0.8; stroke-linejoin: miter; stroke-linecap: square"/>
   </g>
   <g id="text_49">
    <!-- Directivity of text among 3 classes -->
    <g transform="translate(633.756562 37.2) scale(0.12 -0.12)">
     <defs>
      <path id="DejaVuSans-44" d="M 1259 4147 
L 1259 519 
L 2022 519 
Q 2988 519 3436 956 
Q 3884 1394 3884 2338 
Q 3884 3275 3436 3711 
Q 2988 4147 2022 4147 
L 1259 4147 
z
M 628 4666 
L 1925 4666 
Q 3281 4666 3915 4102 
Q 4550 3538 4550 2338 
Q 4550 1131 3912 565 
Q 3275 0 1925 0 
L 628 0 
L 628 4666 
z
" transform="scale(0.015625)"/>
      <path id="DejaVuSans-20" transform="scale(0.015625)"/>
      <path id="DejaVuSans-6f" d="M 1959 3097 
Q 1497 3097 1228 2736 
Q 959 2375 959 1747 
Q 959 1119 1226 758 
Q 1494 397 1959 397 
Q 2419 397 2687 759 
Q 2956 1122 2956 1747 
Q 2956 2369 2687 2733 
Q 2419 3097 1959 3097 
z
M 1959 3584 
Q 2709 3584 3137 3096 
Q 3566 2609 3566 1747 
Q 3566 888 3137 398 
Q 2709 -91 1959 -91 
Q 1206 -91 779 398 
Q 353 888 353 1747 
Q 353 2609 779 3096 
Q 1206 3584 1959 3584 
z
" transform="scale(0.015625)"/>
      <path id="DejaVuSans-78" d="M 3513 3500 
L 2247 1797 
L 3578 0 
L 2900 0 
L 1881 1375 
L 863 0 
L 184 0 
L 1544 1831 
L 300 3500 
L 978 3500 
L 1906 2253 
L 2834 3500 
L 3513 3500 
z
" transform="scale(0.015625)"/>
      <path id="DejaVuSans-61" d="M 2194 1759 
Q 1497 1759 1228 1600 
Q 959 1441 959 1056 
Q 959 750 1161 570 
Q 1363 391 1709 391 
Q 2188 391 2477 730 
Q 2766 1069 2766 1631 
L 2766 1759 
L 2194 1759 
z
M 3341 1997 
L 3341 0 
L 2766 0 
L 2766 531 
Q 2569 213 2275 61 
Q 1981 -91 1556 -91 
Q 1019 -91 701 211 
Q 384 513 384 1019 
Q 384 1609 779 1909 
Q 1175 2209 1959 2209 
L 2766 2209 
L 2766 2266 
Q 2766 2663 2505 2880 
Q 2244 3097 1772 3097 
Q 1472 3097 1187 3025 
Q 903 2953 641 2809 
L 641 3341 
Q 956 3463 1253 3523 
Q 1550 3584 1831 3584 
Q 2591 3584 2966 3190 
Q 3341 2797 3341 1997 
z
" transform="scale(0.015625)"/>
      <path id="DejaVuSans-6d" d="M 3328 2828 
Q 3544 3216 3844 3400 
Q 4144 3584 4550 3584 
Q 5097 3584 5394 3201 
Q 5691 2819 5691 2113 
L 5691 0 
L 5113 0 
L 5113 2094 
Q 5113 2597 4934 2840 
Q 4756 3084 4391 3084 
Q 3944 3084 3684 2787 
Q 3425 2491 3425 1978 
L 3425 0 
L 2847 0 
L 2847 2094 
Q 2847 2600 2669 2842 
Q 2491 3084 2119 3084 
Q 1678 3084 1418 2786 
Q 1159 2488 1159 1978 
L 1159 0 
L 581 0 
L 581 3500 
L 1159 3500 
L 1159 2956 
Q 1356 3278 1631 3431 
Q 1906 3584 2284 3584 
Q 2666 3584 2933 3390 
Q 3200 3197 3328 2828 
z
" transform="scale(0.015625)"/>
      <path id="DejaVuSans-67" d="M 2906 1791 
Q 2906 2416 2648 2759 
Q 2391 3103 1925 3103 
Q 1463 3103 1205 2759 
Q 947 2416 947 1791 
Q 947 1169 1205 825 
Q 1463 481 1925 481 
Q 2391 481 2648 825 
Q 2906 1169 2906 1791 
z
M 3481 434 
Q 3481 -459 3084 -895 
Q 2688 -1331 1869 -1331 
Q 1566 -1331 1297 -1286 
Q 1028 -1241 775 -1147 
L 775 -588 
Q 1028 -725 1275 -790 
Q 1522 -856 1778 -856 
Q 2344 -856 2625 -561 
Q 2906 -266 2906 331 
L 2906 616 
Q 2728 306 2450 153 
Q 2172 0 1784 0 
Q 1141 0 747 490 
Q 353 981 353 1791 
Q 353 2603 747 3093 
Q 1141 3584 1784 3584 
Q 2172 3584 2450 3431 
Q 2728 3278 2906 2969 
L 2906 3500 
L 3481 3500 
L 3481 434 
z
" transform="scale(0.015625)"/>
      <path id="DejaVuSans-6c" d="M 603 4863 
L 1178 4863 
L 1178 0 
L 603 0 
L 603 4863 
z
" transform="scale(0.015625)"/>
      <path id="DejaVuSans-73" d="M 2834 3397 
L 2834 2853 
Q 2591 2978 2328 3040 
Q 2066 3103 1784 3103 
Q 1356 3103 1142 2972 
Q 928 2841 928 2578 
Q 928 2378 1081 2264 
Q 1234 2150 1697 2047 
L 1894 2003 
Q 2506 1872 2764 1633 
Q 3022 1394 3022 966 
Q 3022 478 2636 193 
Q 2250 -91 1575 -91 
Q 1294 -91 989 -36 
Q 684 19 347 128 
L 347 722 
Q 666 556 975 473 
Q 1284 391 1588 391 
Q 1994 391 2212 530 
Q 2431 669 2431 922 
Q 2431 1156 2273 1281 
Q 2116 1406 1581 1522 
L 1381 1569 
Q 847 1681 609 1914 
Q 372 2147 372 2553 
Q 372 3047 722 3315 
Q 1072 3584 1716 3584 
Q 2034 3584 2315 3537 
Q 2597 3491 2834 3397 
z
" transform="scale(0.015625)"/>
     </defs>
     <use xlink:href="#DejaVuSans-44"/>
     <use xlink:href="#DejaVuSans-69" x="77.001953"/>
     <use xlink:href="#DejaVuSans-72" x="104.785156"/>
     <use xlink:href="#DejaVuSans-65" x="143.648438"/>
     <use xlink:href="#DejaVuSans-63" x="205.171875"/>
     <use xlink:href="#DejaVuSans-74" x="260.152344"/>
     <use xlink:href="#DejaVuSans-69" x="299.361328"/>
     <use xlink:href="#DejaVuSans-76" x="327.144531"/>
     <use xlink:href="#DejaVuSans-69" x="386.324219"/>
     <use xlink:href="#DejaVuSans-74" x="414.107422"/>
     <use xlink:href="#DejaVuSans-79" x="453.316406"/>
     <use xlink:href="#DejaVuSans-20" x="512.496094"/>
     <use xlink:href="#DejaVuSans-6f" x="544.283203"/>
     <use xlink:href="#DejaVuSans-66" x="605.464844"/>
     <use xlink:href="#DejaVuSans-20" x="640.669922"/>
     <use xlink:href="#DejaVuSans-74" x="672.457031"/>
     <use xlink:href="#DejaVuSans-65" x="711.666016"/>
     <use xlink:href="#DejaVuSans-78" x="771.439453"/>
     <use xlink:href="#DejaVuSans-74" x="830.619141"/>
     <use xlink:href="#DejaVuSans-20" x="869.828125"/>
     <use xlink:href="#DejaVuSans-61" x="901.615234"/>
     <use xlink:href="#DejaVuSans-6d" x="962.894531"/>
     <use xlink:href="#DejaVuSans-6f" x="1060.306641"/>
     <use xlink:href="#DejaVuSans-6e" x="1121.488281"/>
     <use xlink:href="#DejaVuSans-67" x="1184.867188"/>
     <use xlink:href="#DejaVuSans-20" x="1248.34375"/>
     <use xlink:href="#DejaVuSans-33" x="1280.130859"/>
     <use xlink:href="#DejaVuSans-20" x="1343.753906"/>
     <use xlink:href="#DejaVuSans-63" x="1375.541016"/>
     <use xlink:href="#DejaVuSans-6c" x="1430.521484"/>
     <use xlink:href="#DejaVuSans-61" x="1458.304688"/>
     <use xlink:href="#DejaVuSans-73" x="1519.583984"/>
     <use xlink:href="#DejaVuSans-73" x="1571.683594"/>
     <use xlink:href="#DejaVuSans-65" x="1623.783203"/>
     <use xlink:href="#DejaVuSans-73" x="1685.306641"/>
    </g>
   </g>
   <g id="legend_1">
    <g id="patch_118">
     <path d="M 1211.290625 95.234375 
L 1289 95.234375 
Q 1291 95.234375 1291 93.234375 
L 1291 50.2 
Q 1291 48.2 1289 48.2 
L 1211.290625 48.2 
Q 1209.290625 48.2 1209.290625 50.2 
L 1209.290625 93.234375 
Q 1209.290625 95.234375 1211.290625 95.234375 
z
" style="fill: #ffffff; opacity: 0.8; stroke: #cccccc; stroke-linejoin: miter"/>
    </g>
    <g id="patch_119">
     <path d="M 1213.290625 59.798437 
L 1233.290625 59.798437 
L 1233.290625 52.798437 
L 1213.290625 52.798437 
z
" style="fill: #1f77b4"/>
    </g>
    <g id="text_50">
     <!-- hate -->
     <g transform="translate(1241.290625 59.798437) scale(0.1 -0.1)">
      <defs>
       <path id="DejaVuSans-68" d="M 3513 2113 
L 3513 0 
L 2938 0 
L 2938 2094 
Q 2938 2591 2744 2837 
Q 2550 3084 2163 3084 
Q 1697 3084 1428 2787 
Q 1159 2491 1159 1978 
L 1159 0 
L 581 0 
L 581 4863 
L 1159 4863 
L 1159 2956 
Q 1366 3272 1645 3428 
Q 1925 3584 2291 3584 
Q 2894 3584 3203 3211 
Q 3513 2838 3513 2113 
z
" transform="scale(0.015625)"/>
      </defs>
      <use xlink:href="#DejaVuSans-68"/>
      <use xlink:href="#DejaVuSans-61" x="63.378906"/>
      <use xlink:href="#DejaVuSans-74" x="124.658203"/>
      <use xlink:href="#DejaVuSans-65" x="163.867188"/>
     </g>
    </g>
    <g id="patch_120">
     <path d="M 1213.290625 74.476562 
L 1233.290625 74.476562 
L 1233.290625 67.476562 
L 1213.290625 67.476562 
z
" style="fill: #ff7f0e"/>
    </g>
    <g id="text_51">
     <!-- offensive -->
     <g transform="translate(1241.290625 74.476562) scale(0.1 -0.1)">
      <use xlink:href="#DejaVuSans-6f"/>
      <use xlink:href="#DejaVuSans-66" x="61.181641"/>
      <use xlink:href="#DejaVuSans-66" x="96.386719"/>
      <use xlink:href="#DejaVuSans-65" x="131.591797"/>
      <use xlink:href="#DejaVuSans-6e" x="193.115234"/>
      <use xlink:href="#DejaVuSans-73" x="256.494141"/>
      <use xlink:href="#DejaVuSans-69" x="308.59375"/>
      <use xlink:href="#DejaVuSans-76" x="336.376953"/>
      <use xlink:href="#DejaVuSans-65" x="395.556641"/>
     </g>
    </g>
    <g id="patch_121">
     <path d="M 1213.290625 89.154687 
L 1233.290625 89.154687 
L 1233.290625 82.154687 
L 1213.290625 82.154687 
z
" style="fill: #2ca02c"/>
    </g>
    <g id="text_52">
     <!-- normal -->
     <g transform="translate(1241.290625 89.154687) scale(0.1 -0.1)">
      <use xlink:href="#DejaVuSans-6e"/>
      <use xlink:href="#DejaVuSans-6f" x="63.378906"/>
      <use xlink:href="#DejaVuSans-72" x="124.560547"/>
      <use xlink:href="#DejaVuSans-6d" x="163.923828"/>
      <use xlink:href="#DejaVuSans-61" x="261.335938"/>
      <use xlink:href="#DejaVuSans-6c" x="322.615234"/>
     </g>
    </g>
   </g>
  </g>
 </g>
 <defs>
  <clipPath id="p2e74f39d7f">
   <rect x="180" y="43.2" width="1116" height="277.2"/>
  </clipPath>
 </defs>
</svg>
