<?xml version="1.0" encoding="utf-8" standalone="no"?>
<!DOCTYPE svg PUBLIC "-//W3C//DTD SVG 1.1//EN"
  "http://www.w3.org/Graphics/SVG/1.1/DTD/svg11.dtd">
<svg xmlns:xlink="http://www.w3.org/1999/xlink" width="1440pt" height="360pt" viewBox="0 0 1440 360" xmlns="http://www.w3.org/2000/svg" version="1.1">
 <metadata>
  <rdf:RDF xmlns:dc="http://purl.org/dc/elements/1.1/" xmlns:cc="http://creativecommons.org/ns#" xmlns:rdf="http://www.w3.org/1999/02/22-rdf-syntax-ns#">
   <cc:Work>
    <dc:type rdf:resource="http://purl.org/dc/dcmitype/StillImage"/>
    <dc:date>2023-12-23T22:37:36.367099</dc:date>
    <dc:format>image/svg+xml</dc:format>
    <dc:creator>
     <cc:Agent>
      <dc:title>Matplotlib v3.7.1, https://matplotlib.org/</dc:title>
     </cc:Agent>
    </dc:creator>
   </cc:Work>
  </rdf:RDF>
 </metadata>
 <defs>
  <style type="text/css">*{stroke-linejoin: round; stroke-linecap: butt}</style>
 </defs>
 <g id="figure_1">
  <g id="patch_1">
   <path d="M 0 360 
L 1440 360 
L 1440 0 
L 0 0 
z
" style="fill: #ffffff"/>
  </g>
  <g id="axes_1">
   <g id="patch_2">
    <path d="M 180 320.4 
L 1296 320.4 
L 1296 43.2 
L 180 43.2 
z
" style="fill: #ffffff"/>
   </g>
   <g id="patch_3">
    <path d="M 230.727273 320.4 
L 241.159617 320.4 
L 241.159617 225.335884 
L 230.727273 225.335884 
z
" clip-path="url(#p679b5b684c)" style="fill: #1f77b4"/>
   </g>
   <g id="patch_4">
    <path d="M 243.767703 320.4 
L 254.200047 320.4 
L 254.200047 313.771247 
L 243.767703 313.771247 
z
" clip-path="url(#p679b5b684c)" style="fill: #1f77b4"/>
   </g>
   <g id="patch_5">
    <path d="M 256.808133 320.4 
L 267.240477 320.4 
L 267.240477 314.941027 
L 256.808133 314.941027 
z
" clip-path="url(#p679b5b684c)" style="fill: #1f77b4"/>
   </g>
   <g id="patch_6">
    <path d="M 269.848563 320.4 
L 280.280907 320.4 
L 280.280907 318.06044 
L 269.848563 318.06044 
z
" clip-path="url(#p679b5b684c)" style="fill: #1f77b4"/>
   </g>
   <g id="patch_7">
    <path d="M 282.888993 320.4 
L 293.321337 320.4 
L 293.321337 319.776117 
L 282.888993 319.776117 
z
" clip-path="url(#p679b5b684c)" style="fill: #1f77b4"/>
   </g>
   <g id="patch_8">
    <path d="M 295.929423 320.4 
L 306.361767 320.4 
L 306.361767 319.776117 
L 295.929423 319.776117 
z
" clip-path="url(#p679b5b684c)" style="fill: #1f77b4"/>
   </g>
   <g id="patch_9">
    <path d="M 308.969853 320.4 
L 319.402197 320.4 
L 319.402197 320.088059 
L 308.969853 320.088059 
z
" clip-path="url(#p679b5b684c)" style="fill: #1f77b4"/>
   </g>
   <g id="patch_10">
    <path d="M 322.010283 320.4 
L 332.442627 320.4 
L 332.442627 320.166044 
L 322.010283 320.166044 
z
" clip-path="url(#p679b5b684c)" style="fill: #1f77b4"/>
   </g>
   <g id="patch_11">
    <path d="M 374.172003 320.4 
L 384.604347 320.4 
L 384.604347 320.322015 
L 374.172003 320.322015 
z
" clip-path="url(#p679b5b684c)" style="fill: #1f77b4"/>
   </g>
   <g id="patch_12">
    <path d="M 335.050713 320.4 
L 345.483057 320.4 
L 345.483057 320.322015 
L 335.050713 320.322015 
z
" clip-path="url(#p679b5b684c)" style="fill: #1f77b4"/>
   </g>
   <g id="patch_13">
    <path d="M 452.414583 320.4 
L 462.846927 320.4 
L 462.846927 320.322015 
L 452.414583 320.322015 
z
" clip-path="url(#p679b5b684c)" style="fill: #1f77b4"/>
   </g>
   <g id="patch_14">
    <path d="M 348.091143 320.4 
L 358.523487 320.4 
L 358.523487 320.4 
L 348.091143 320.4 
z
" clip-path="url(#p679b5b684c)" style="fill: #1f77b4"/>
   </g>
   <g id="patch_15">
    <path d="M 361.131573 320.4 
L 371.563917 320.4 
L 371.563917 320.4 
L 361.131573 320.4 
z
" clip-path="url(#p679b5b684c)" style="fill: #1f77b4"/>
   </g>
   <g id="patch_16">
    <path d="M 387.212433 320.4 
L 397.644777 320.4 
L 397.644777 320.4 
L 387.212433 320.4 
z
" clip-path="url(#p679b5b684c)" style="fill: #1f77b4"/>
   </g>
   <g id="patch_17">
    <path d="M 400.252863 320.4 
L 410.685207 320.4 
L 410.685207 320.4 
L 400.252863 320.4 
z
" clip-path="url(#p679b5b684c)" style="fill: #1f77b4"/>
   </g>
   <g id="patch_18">
    <path d="M 413.293293 320.4 
L 423.725637 320.4 
L 423.725637 320.4 
L 413.293293 320.4 
z
" clip-path="url(#p679b5b684c)" style="fill: #1f77b4"/>
   </g>
   <g id="patch_19">
    <path d="M 426.333723 320.4 
L 436.766067 320.4 
L 436.766067 320.4 
L 426.333723 320.4 
z
" clip-path="url(#p679b5b684c)" style="fill: #1f77b4"/>
   </g>
   <g id="patch_20">
    <path d="M 530.657163 320.4 
L 541.089507 320.4 
L 541.089507 320.4 
L 530.657163 320.4 
z
" clip-path="url(#p679b5b684c)" style="fill: #1f77b4"/>
   </g>
   <g id="patch_21">
    <path d="M 543.697593 320.4 
L 554.129937 320.4 
L 554.129937 320.4 
L 543.697593 320.4 
z
" clip-path="url(#p679b5b684c)" style="fill: #1f77b4"/>
   </g>
   <g id="patch_22">
    <path d="M 465.455013 320.4 
L 475.887357 320.4 
L 475.887357 320.4 
L 465.455013 320.4 
z
" clip-path="url(#p679b5b684c)" style="fill: #1f77b4"/>
   </g>
   <g id="patch_23">
    <path d="M 556.738023 320.4 
L 567.170367 320.4 
L 567.170367 320.4 
L 556.738023 320.4 
z
" clip-path="url(#p679b5b684c)" style="fill: #1f77b4"/>
   </g>
   <g id="patch_24">
    <path d="M 843.627483 320.4 
L 854.059827 320.4 
L 854.059827 320.4 
L 843.627483 320.4 
z
" clip-path="url(#p679b5b684c)" style="fill: #1f77b4"/>
   </g>
   <g id="patch_25">
    <path d="M 582.818883 320.4 
L 593.251227 320.4 
L 593.251227 320.4 
L 582.818883 320.4 
z
" clip-path="url(#p679b5b684c)" style="fill: #1f77b4"/>
   </g>
   <g id="patch_26">
    <path d="M 439.374153 320.4 
L 449.806497 320.4 
L 449.806497 320.4 
L 439.374153 320.4 
z
" clip-path="url(#p679b5b684c)" style="fill: #1f77b4"/>
   </g>
   <g id="patch_27">
    <path d="M 739.304043 320.4 
L 749.736387 320.4 
L 749.736387 320.4 
L 739.304043 320.4 
z
" clip-path="url(#p679b5b684c)" style="fill: #1f77b4"/>
   </g>
   <g id="patch_28">
    <path d="M 1078.355223 320.4 
L 1088.787567 320.4 
L 1088.787567 320.4 
L 1078.355223 320.4 
z
" clip-path="url(#p679b5b684c)" style="fill: #1f77b4"/>
   </g>
   <g id="patch_29">
    <path d="M 478.495443 320.4 
L 488.927787 320.4 
L 488.927787 320.4 
L 478.495443 320.4 
z
" clip-path="url(#p679b5b684c)" style="fill: #1f77b4"/>
   </g>
   <g id="patch_30">
    <path d="M 1052.274363 320.4 
L 1062.706707 320.4 
L 1062.706707 320.4 
L 1052.274363 320.4 
z
" clip-path="url(#p679b5b684c)" style="fill: #1f77b4"/>
   </g>
   <g id="patch_31">
    <path d="M 504.576303 320.4 
L 515.008647 320.4 
L 515.008647 320.4 
L 504.576303 320.4 
z
" clip-path="url(#p679b5b684c)" style="fill: #1f77b4"/>
   </g>
   <g id="patch_32">
    <path d="M 752.344473 320.4 
L 762.776817 320.4 
L 762.776817 320.4 
L 752.344473 320.4 
z
" clip-path="url(#p679b5b684c)" style="fill: #1f77b4"/>
   </g>
   <g id="patch_33">
    <path d="M 1234.840383 320.4 
L 1245.272727 320.4 
L 1245.272727 320.4 
L 1234.840383 320.4 
z
" clip-path="url(#p679b5b684c)" style="fill: #1f77b4"/>
   </g>
   <g id="patch_34">
    <path d="M 491.535873 320.4 
L 501.968217 320.4 
L 501.968217 320.4 
L 491.535873 320.4 
z
" clip-path="url(#p679b5b684c)" style="fill: #1f77b4"/>
   </g>
   <g id="patch_35">
    <path d="M 517.616733 320.4 
L 528.049077 320.4 
L 528.049077 320.4 
L 517.616733 320.4 
z
" clip-path="url(#p679b5b684c)" style="fill: #1f77b4"/>
   </g>
   <g id="patch_36">
    <path d="M 700.182753 320.4 
L 710.615097 320.4 
L 710.615097 320.4 
L 700.182753 320.4 
z
" clip-path="url(#p679b5b684c)" style="fill: #1f77b4"/>
   </g>
   <g id="patch_37">
    <path d="M 595.859313 320.4 
L 606.291657 320.4 
L 606.291657 320.4 
L 595.859313 320.4 
z
" clip-path="url(#p679b5b684c)" style="fill: #1f77b4"/>
   </g>
   <g id="patch_38">
    <path d="M 1091.395653 320.4 
L 1101.827997 320.4 
L 1101.827997 320.4 
L 1091.395653 320.4 
z
" clip-path="url(#p679b5b684c)" style="fill: #1f77b4"/>
   </g>
   <g id="patch_39">
    <path d="M 230.727273 225.335884 
L 241.159617 225.335884 
L 241.159617 141.827373 
L 230.727273 141.827373 
z
" clip-path="url(#p679b5b684c)" style="fill: #ff7f0e"/>
   </g>
   <g id="patch_40">
    <path d="M 243.767703 313.771247 
L 254.200047 313.771247 
L 254.200047 303.322513 
L 243.767703 303.322513 
z
" clip-path="url(#p679b5b684c)" style="fill: #ff7f0e"/>
   </g>
   <g id="patch_41">
    <path d="M 256.808133 314.941027 
L 267.240477 314.941027 
L 267.240477 307.27591 
L 256.808133 307.27591 
z
" clip-path="url(#p679b5b684c)" style="fill: #ff7f0e"/>
   </g>
   <g id="patch_42">
    <path d="M 269.848563 318.06044 
L 280.280907 318.06044 
L 280.280907 314.224976 
L 269.848563 314.224976 
z
" clip-path="url(#p679b5b684c)" style="fill: #ff7f0e"/>
   </g>
   <g id="patch_43">
    <path d="M 282.888993 319.776117 
L 293.321337 319.776117 
L 293.321337 317.562009 
L 282.888993 317.562009 
z
" clip-path="url(#p679b5b684c)" style="fill: #ff7f0e"/>
   </g>
   <g id="patch_44">
    <path d="M 295.929423 319.776117 
L 306.361767 319.776117 
L 306.361767 318.608044 
L 295.929423 318.608044 
z
" clip-path="url(#p679b5b684c)" style="fill: #ff7f0e"/>
   </g>
   <g id="patch_45">
    <path d="M 308.969853 320.088059 
L 319.402197 320.088059 
L 319.402197 319.239608 
L 308.969853 319.239608 
z
" clip-path="url(#p679b5b684c)" style="fill: #ff7f0e"/>
   </g>
   <g id="patch_46">
    <path d="M 322.010283 320.166044 
L 332.442627 320.166044 
L 332.442627 319.695328 
L 322.010283 319.695328 
z
" clip-path="url(#p679b5b684c)" style="fill: #ff7f0e"/>
   </g>
   <g id="patch_47">
    <path d="M 374.172003 320.322015 
L 384.604347 320.322015 
L 384.604347 320.217411 
L 374.172003 320.217411 
z
" clip-path="url(#p679b5b684c)" style="fill: #ff7f0e"/>
   </g>
   <g id="patch_48">
    <path d="M 335.050713 320.322015 
L 345.483057 320.322015 
L 345.483057 319.891978 
L 335.050713 319.891978 
z
" clip-path="url(#p679b5b684c)" style="fill: #ff7f0e"/>
   </g>
   <g id="patch_49">
    <path d="M 452.414583 320.322015 
L 462.846927 320.322015 
L 462.846927 320.310392 
L 452.414583 320.310392 
z
" clip-path="url(#p679b5b684c)" style="fill: #ff7f0e"/>
   </g>
   <g id="patch_50">
    <path d="M 348.091143 320.4 
L 358.523487 320.4 
L 358.523487 320.138491 
L 348.091143 320.138491 
z
" clip-path="url(#p679b5b684c)" style="fill: #ff7f0e"/>
   </g>
   <g id="patch_51">
    <path d="M 361.131573 320.4 
L 371.563917 320.4 
L 371.563917 320.243095 
L 361.131573 320.243095 
z
" clip-path="url(#p679b5b684c)" style="fill: #ff7f0e"/>
   </g>
   <g id="patch_52">
    <path d="M 387.212433 320.4 
L 397.644777 320.4 
L 397.644777 320.31283 
L 387.212433 320.31283 
z
" clip-path="url(#p679b5b684c)" style="fill: #ff7f0e"/>
   </g>
   <g id="patch_53">
    <path d="M 400.252863 320.4 
L 410.685207 320.4 
L 410.685207 320.336076 
L 400.252863 320.336076 
z
" clip-path="url(#p679b5b684c)" style="fill: #ff7f0e"/>
   </g>
   <g id="patch_54">
    <path d="M 413.293293 320.4 
L 423.725637 320.4 
L 423.725637 320.347698 
L 413.293293 320.347698 
z
" clip-path="url(#p679b5b684c)" style="fill: #ff7f0e"/>
   </g>
   <g id="patch_55">
    <path d="M 426.333723 320.4 
L 436.766067 320.4 
L 436.766067 320.376755 
L 426.333723 320.376755 
z
" clip-path="url(#p679b5b684c)" style="fill: #ff7f0e"/>
   </g>
   <g id="patch_56">
    <path d="M 530.657163 320.4 
L 541.089507 320.4 
L 541.089507 320.376755 
L 530.657163 320.376755 
z
" clip-path="url(#p679b5b684c)" style="fill: #ff7f0e"/>
   </g>
   <g id="patch_57">
    <path d="M 543.697593 320.4 
L 554.129937 320.4 
L 554.129937 320.382566 
L 543.697593 320.382566 
z
" clip-path="url(#p679b5b684c)" style="fill: #ff7f0e"/>
   </g>
   <g id="patch_58">
    <path d="M 465.455013 320.4 
L 475.887357 320.4 
L 475.887357 320.382566 
L 465.455013 320.382566 
z
" clip-path="url(#p679b5b684c)" style="fill: #ff7f0e"/>
   </g>
   <g id="patch_59">
    <path d="M 556.738023 320.4 
L 567.170367 320.4 
L 567.170367 320.388377 
L 556.738023 320.388377 
z
" clip-path="url(#p679b5b684c)" style="fill: #ff7f0e"/>
   </g>
   <g id="patch_60">
    <path d="M 843.627483 320.4 
L 854.059827 320.4 
L 854.059827 320.388377 
L 843.627483 320.388377 
z
" clip-path="url(#p679b5b684c)" style="fill: #ff7f0e"/>
   </g>
   <g id="patch_61">
    <path d="M 582.818883 320.4 
L 593.251227 320.4 
L 593.251227 320.388377 
L 582.818883 320.388377 
z
" clip-path="url(#p679b5b684c)" style="fill: #ff7f0e"/>
   </g>
   <g id="patch_62">
    <path d="M 439.374153 320.4 
L 449.806497 320.4 
L 449.806497 320.388377 
L 439.374153 320.388377 
z
" clip-path="url(#p679b5b684c)" style="fill: #ff7f0e"/>
   </g>
   <g id="patch_63">
    <path d="M 739.304043 320.4 
L 749.736387 320.4 
L 749.736387 320.394189 
L 739.304043 320.394189 
z
" clip-path="url(#p679b5b684c)" style="fill: #ff7f0e"/>
   </g>
   <g id="patch_64">
    <path d="M 1078.355223 320.4 
L 1088.787567 320.4 
L 1088.787567 320.394189 
L 1078.355223 320.394189 
z
" clip-path="url(#p679b5b684c)" style="fill: #ff7f0e"/>
   </g>
   <g id="patch_65">
    <path d="M 478.495443 320.4 
L 488.927787 320.4 
L 488.927787 320.394189 
L 478.495443 320.394189 
z
" clip-path="url(#p679b5b684c)" style="fill: #ff7f0e"/>
   </g>
   <g id="patch_66">
    <path d="M 1052.274363 320.4 
L 1062.706707 320.4 
L 1062.706707 320.394189 
L 1052.274363 320.394189 
z
" clip-path="url(#p679b5b684c)" style="fill: #ff7f0e"/>
   </g>
   <g id="patch_67">
    <path d="M 504.576303 320.4 
L 515.008647 320.4 
L 515.008647 320.394189 
L 504.576303 320.394189 
z
" clip-path="url(#p679b5b684c)" style="fill: #ff7f0e"/>
   </g>
   <g id="patch_68">
    <path d="M 752.344473 320.4 
L 762.776817 320.4 
L 762.776817 320.394189 
L 752.344473 320.394189 
z
" clip-path="url(#p679b5b684c)" style="fill: #ff7f0e"/>
   </g>
   <g id="patch_69">
    <path d="M 1234.840383 320.4 
L 1245.272727 320.4 
L 1245.272727 320.394189 
L 1234.840383 320.394189 
z
" clip-path="url(#p679b5b684c)" style="fill: #ff7f0e"/>
   </g>
   <g id="patch_70">
    <path d="M 491.535873 320.4 
L 501.968217 320.4 
L 501.968217 320.394189 
L 491.535873 320.394189 
z
" clip-path="url(#p679b5b684c)" style="fill: #ff7f0e"/>
   </g>
   <g id="patch_71">
    <path d="M 517.616733 320.4 
L 528.049077 320.4 
L 528.049077 320.394189 
L 517.616733 320.394189 
z
" clip-path="url(#p679b5b684c)" style="fill: #ff7f0e"/>
   </g>
   <g id="patch_72">
    <path d="M 700.182753 320.4 
L 710.615097 320.4 
L 710.615097 320.394189 
L 700.182753 320.394189 
z
" clip-path="url(#p679b5b684c)" style="fill: #ff7f0e"/>
   </g>
   <g id="patch_73">
    <path d="M 595.859313 320.4 
L 606.291657 320.4 
L 606.291657 320.394189 
L 595.859313 320.394189 
z
" clip-path="url(#p679b5b684c)" style="fill: #ff7f0e"/>
   </g>
   <g id="patch_74">
    <path d="M 1091.395653 320.4 
L 1101.827997 320.4 
L 1101.827997 320.4 
L 1091.395653 320.4 
z
" clip-path="url(#p679b5b684c)" style="fill: #ff7f0e"/>
   </g>
   <g id="patch_75">
    <path d="M 230.727273 141.827373 
L 241.159617 141.827373 
L 241.159617 56.4 
L 230.727273 56.4 
z
" clip-path="url(#p679b5b684c)" style="fill: #2ca02c"/>
   </g>
   <g id="patch_76">
    <path d="M 243.767703 303.322513 
L 254.200047 303.322513 
L 254.200047 288.481885 
L 243.767703 288.481885 
z
" clip-path="url(#p679b5b684c)" style="fill: #2ca02c"/>
   </g>
   <g id="patch_77">
    <path d="M 256.808133 307.27591 
L 267.240477 307.27591 
L 267.240477 300.739605 
L 256.808133 300.739605 
z
" clip-path="url(#p679b5b684c)" style="fill: #2ca02c"/>
   </g>
   <g id="patch_78">
    <path d="M 269.848563 314.224976 
L 280.280907 314.224976 
L 280.280907 312.349806 
L 269.848563 312.349806 
z
" clip-path="url(#p679b5b684c)" style="fill: #2ca02c"/>
   </g>
   <g id="patch_79">
    <path d="M 282.888993 317.562009 
L 293.321337 317.562009 
L 293.321337 316.544059 
L 282.888993 316.544059 
z
" clip-path="url(#p679b5b684c)" style="fill: #2ca02c"/>
   </g>
   <g id="patch_80">
    <path d="M 295.929423 318.608044 
L 306.361767 318.608044 
L 306.361767 318.072281 
L 295.929423 318.072281 
z
" clip-path="url(#p679b5b684c)" style="fill: #2ca02c"/>
   </g>
   <g id="patch_81">
    <path d="M 308.969853 319.239608 
L 319.402197 319.239608 
L 319.402197 318.703845 
L 308.969853 318.703845 
z
" clip-path="url(#p679b5b684c)" style="fill: #2ca02c"/>
   </g>
   <g id="patch_82">
    <path d="M 322.010283 319.695328 
L 332.442627 319.695328 
L 332.442627 319.561387 
L 322.010283 319.561387 
z
" clip-path="url(#p679b5b684c)" style="fill: #2ca02c"/>
   </g>
   <g id="patch_83">
    <path d="M 374.172003 320.217411 
L 384.604347 320.217411 
L 384.604347 320.190623 
L 374.172003 320.190623 
z
" clip-path="url(#p679b5b684c)" style="fill: #2ca02c"/>
   </g>
   <g id="patch_84">
    <path d="M 335.050713 319.891978 
L 345.483057 319.891978 
L 345.483057 319.811613 
L 335.050713 319.811613 
z
" clip-path="url(#p679b5b684c)" style="fill: #2ca02c"/>
   </g>
   <g id="patch_85">
    <path d="M 452.414583 320.310392 
L 462.846927 320.310392 
L 462.846927 320.310392 
L 452.414583 320.310392 
z
" clip-path="url(#p679b5b684c)" style="fill: #2ca02c"/>
   </g>
   <g id="patch_86">
    <path d="M 348.091143 320.138491 
L 358.523487 320.138491 
L 358.523487 320.084915 
L 348.091143 320.084915 
z
" clip-path="url(#p679b5b684c)" style="fill: #2ca02c"/>
   </g>
   <g id="patch_87">
    <path d="M 361.131573 320.243095 
L 371.563917 320.243095 
L 371.563917 320.189518 
L 361.131573 320.189518 
z
" clip-path="url(#p679b5b684c)" style="fill: #2ca02c"/>
   </g>
   <g id="patch_88">
    <path d="M 387.212433 320.31283 
L 397.644777 320.31283 
L 397.644777 320.232466 
L 387.212433 320.232466 
z
" clip-path="url(#p679b5b684c)" style="fill: #2ca02c"/>
   </g>
   <g id="patch_89">
    <path d="M 400.252863 320.336076 
L 410.685207 320.336076 
L 410.685207 320.094982 
L 400.252863 320.094982 
z
" clip-path="url(#p679b5b684c)" style="fill: #2ca02c"/>
   </g>
   <g id="patch_90">
    <path d="M 413.293293 320.347698 
L 423.725637 320.347698 
L 423.725637 320.32091 
L 413.293293 320.32091 
z
" clip-path="url(#p679b5b684c)" style="fill: #2ca02c"/>
   </g>
   <g id="patch_91">
    <path d="M 426.333723 320.376755 
L 436.766067 320.376755 
L 436.766067 320.349967 
L 426.333723 320.349967 
z
" clip-path="url(#p679b5b684c)" style="fill: #2ca02c"/>
   </g>
   <g id="patch_92">
    <path d="M 530.657163 320.376755 
L 541.089507 320.376755 
L 541.089507 320.376755 
L 530.657163 320.376755 
z
" clip-path="url(#p679b5b684c)" style="fill: #2ca02c"/>
   </g>
   <g id="patch_93">
    <path d="M 543.697593 320.382566 
L 554.129937 320.382566 
L 554.129937 320.382566 
L 543.697593 320.382566 
z
" clip-path="url(#p679b5b684c)" style="fill: #2ca02c"/>
   </g>
   <g id="patch_94">
    <path d="M 465.455013 320.382566 
L 475.887357 320.382566 
L 475.887357 320.382566 
L 465.455013 320.382566 
z
" clip-path="url(#p679b5b684c)" style="fill: #2ca02c"/>
   </g>
   <g id="patch_95">
    <path d="M 556.738023 320.388377 
L 567.170367 320.388377 
L 567.170367 320.388377 
L 556.738023 320.388377 
z
" clip-path="url(#p679b5b684c)" style="fill: #2ca02c"/>
   </g>
   <g id="patch_96">
    <path d="M 843.627483 320.388377 
L 854.059827 320.388377 
L 854.059827 320.388377 
L 843.627483 320.388377 
z
" clip-path="url(#p679b5b684c)" style="fill: #2ca02c"/>
   </g>
   <g id="patch_97">
    <path d="M 582.818883 320.388377 
L 593.251227 320.388377 
L 593.251227 320.388377 
L 582.818883 320.388377 
z
" clip-path="url(#p679b5b684c)" style="fill: #2ca02c"/>
   </g>
   <g id="patch_98">
    <path d="M 439.374153 320.388377 
L 449.806497 320.388377 
L 449.806497 320.388377 
L 439.374153 320.388377 
z
" clip-path="url(#p679b5b684c)" style="fill: #2ca02c"/>
   </g>
   <g id="patch_99">
    <path d="M 739.304043 320.394189 
L 749.736387 320.394189 
L 749.736387 320.394189 
L 739.304043 320.394189 
z
" clip-path="url(#p679b5b684c)" style="fill: #2ca02c"/>
   </g>
   <g id="patch_100">
    <path d="M 1078.355223 320.394189 
L 1088.787567 320.394189 
L 1088.787567 320.394189 
L 1078.355223 320.394189 
z
" clip-path="url(#p679b5b684c)" style="fill: #2ca02c"/>
   </g>
   <g id="patch_101">
    <path d="M 478.495443 320.394189 
L 488.927787 320.394189 
L 488.927787 320.394189 
L 478.495443 320.394189 
z
" clip-path="url(#p679b5b684c)" style="fill: #2ca02c"/>
   </g>
   <g id="patch_102">
    <path d="M 1052.274363 320.394189 
L 1062.706707 320.394189 
L 1062.706707 320.394189 
L 1052.274363 320.394189 
z
" clip-path="url(#p679b5b684c)" style="fill: #2ca02c"/>
   </g>
   <g id="patch_103">
    <path d="M 504.576303 320.394189 
L 515.008647 320.394189 
L 515.008647 320.394189 
L 504.576303 320.394189 
z
" clip-path="url(#p679b5b684c)" style="fill: #2ca02c"/>
   </g>
   <g id="patch_104">
    <path d="M 752.344473 320.394189 
L 762.776817 320.394189 
L 762.776817 320.394189 
L 752.344473 320.394189 
z
" clip-path="url(#p679b5b684c)" style="fill: #2ca02c"/>
   </g>
   <g id="patch_105">
    <path d="M 1234.840383 320.394189 
L 1245.272727 320.394189 
L 1245.272727 320.394189 
L 1234.840383 320.394189 
z
" clip-path="url(#p679b5b684c)" style="fill: #2ca02c"/>
   </g>
   <g id="patch_106">
    <path d="M 491.535873 320.394189 
L 501.968217 320.394189 
L 501.968217 320.394189 
L 491.535873 320.394189 
z
" clip-path="url(#p679b5b684c)" style="fill: #2ca02c"/>
   </g>
   <g id="patch_107">
    <path d="M 517.616733 320.394189 
L 528.049077 320.394189 
L 528.049077 320.394189 
L 517.616733 320.394189 
z
" clip-path="url(#p679b5b684c)" style="fill: #2ca02c"/>
   </g>
   <g id="patch_108">
    <path d="M 700.182753 320.394189 
L 710.615097 320.394189 
L 710.615097 320.394189 
L 700.182753 320.394189 
z
" clip-path="url(#p679b5b684c)" style="fill: #2ca02c"/>
   </g>
   <g id="patch_109">
    <path d="M 595.859313 320.394189 
L 606.291657 320.394189 
L 606.291657 320.394189 
L 595.859313 320.394189 
z
" clip-path="url(#p679b5b684c)" style="fill: #2ca02c"/>
   </g>
   <g id="patch_110">
    <path d="M 1091.395653 320.4 
L 1101.827997 320.4 
L 1101.827997 320.373212 
L 1091.395653 320.373212 
z
" clip-path="url(#p679b5b684c)" style="fill: #2ca02c"/>
   </g>
   <g id="matplotlib.axis_1">
    <g id="xtick_1">
     <g id="line2d_1">
      <defs>
       <path id="me510b37ede" d="M 0 0 
L 0 3.5 
" style="stroke: #000000; stroke-width: 0.8"/>
      </defs>
      <g>
       <use xlink:href="#me510b37ede" x="235.943445" y="320.4" style="stroke: #000000; stroke-width: 0.8"/>
      </g>
     </g>
     <g id="text_1">
      <!-- 0 -->
      <g transform="translate(232.762195 334.998438) scale(0.1 -0.1)">
       <defs>
        <path id="DejaVuSans-30" d="M 2034 4250 
Q 1547 4250 1301 3770 
Q 1056 3291 1056 2328 
Q 1056 1369 1301 889 
Q 1547 409 2034 409 
Q 2525 409 2770 889 
Q 3016 1369 3016 2328 
Q 3016 3291 2770 3770 
Q 2525 4250 2034 4250 
z
M 2034 4750 
Q 2819 4750 3233 4129 
Q 3647 3509 3647 2328 
Q 3647 1150 3233 529 
Q 2819 -91 2034 -91 
Q 1250 -91 836 529 
Q 422 1150 422 2328 
Q 422 3509 836 4129 
Q 1250 4750 2034 4750 
z
" transform="scale(0.015625)"/>
       </defs>
       <use xlink:href="#DejaVuSans-30"/>
      </g>
     </g>
    </g>
    <g id="xtick_2">
     <g id="line2d_2">
      <g>
       <use xlink:href="#me510b37ede" x="248.983875" y="320.4" style="stroke: #000000; stroke-width: 0.8"/>
      </g>
     </g>
     <g id="text_2">
      <!-- 1 -->
      <g transform="translate(245.802625 334.998438) scale(0.1 -0.1)">
       <defs>
        <path id="DejaVuSans-31" d="M 794 531 
L 1825 531 
L 1825 4091 
L 703 3866 
L 703 4441 
L 1819 4666 
L 2450 4666 
L 2450 531 
L 3481 531 
L 3481 0 
L 794 0 
L 794 531 
z
" transform="scale(0.015625)"/>
       </defs>
       <use xlink:href="#DejaVuSans-31"/>
      </g>
     </g>
    </g>
    <g id="xtick_3">
     <g id="line2d_3">
      <g>
       <use xlink:href="#me510b37ede" x="262.024305" y="320.4" style="stroke: #000000; stroke-width: 0.8"/>
      </g>
     </g>
     <g id="text_3">
      <!-- 2 -->
      <g transform="translate(258.843055 334.998438) scale(0.1 -0.1)">
       <defs>
        <path id="DejaVuSans-32" d="M 1228 531 
L 3431 531 
L 3431 0 
L 469 0 
L 469 531 
Q 828 903 1448 1529 
Q 2069 2156 2228 2338 
Q 2531 2678 2651 2914 
Q 2772 3150 2772 3378 
Q 2772 3750 2511 3984 
Q 2250 4219 1831 4219 
Q 1534 4219 1204 4116 
Q 875 4013 500 3803 
L 500 4441 
Q 881 4594 1212 4672 
Q 1544 4750 1819 4750 
Q 2544 4750 2975 4387 
Q 3406 4025 3406 3419 
Q 3406 3131 3298 2873 
Q 3191 2616 2906 2266 
Q 2828 2175 2409 1742 
Q 1991 1309 1228 531 
z
" transform="scale(0.015625)"/>
       </defs>
       <use xlink:href="#DejaVuSans-32"/>
      </g>
     </g>
    </g>
    <g id="xtick_4">
     <g id="line2d_4">
      <g>
       <use xlink:href="#me510b37ede" x="275.064735" y="320.4" style="stroke: #000000; stroke-width: 0.8"/>
      </g>
     </g>
     <g id="text_4">
      <!-- 3 -->
      <g transform="translate(271.883485 334.998438) scale(0.1 -0.1)">
       <defs>
        <path id="DejaVuSans-33" d="M 2597 2516 
Q 3050 2419 3304 2112 
Q 3559 1806 3559 1356 
Q 3559 666 3084 287 
Q 2609 -91 1734 -91 
Q 1441 -91 1130 -33 
Q 819 25 488 141 
L 488 750 
Q 750 597 1062 519 
Q 1375 441 1716 441 
Q 2309 441 2620 675 
Q 2931 909 2931 1356 
Q 2931 1769 2642 2001 
Q 2353 2234 1838 2234 
L 1294 2234 
L 1294 2753 
L 1863 2753 
Q 2328 2753 2575 2939 
Q 2822 3125 2822 3475 
Q 2822 3834 2567 4026 
Q 2313 4219 1838 4219 
Q 1578 4219 1281 4162 
Q 984 4106 628 3988 
L 628 4550 
Q 988 4650 1302 4700 
Q 1616 4750 1894 4750 
Q 2613 4750 3031 4423 
Q 3450 4097 3450 3541 
Q 3450 3153 3228 2886 
Q 3006 2619 2597 2516 
z
" transform="scale(0.015625)"/>
       </defs>
       <use xlink:href="#DejaVuSans-33"/>
      </g>
     </g>
    </g>
    <g id="xtick_5">
     <g id="line2d_5">
      <g>
       <use xlink:href="#me510b37ede" x="288.105165" y="320.4" style="stroke: #000000; stroke-width: 0.8"/>
      </g>
     </g>
     <g id="text_5">
      <!-- 4 -->
      <g transform="translate(284.923915 334.998438) scale(0.1 -0.1)">
       <defs>
        <path id="DejaVuSans-34" d="M 2419 4116 
L 825 1625 
L 2419 1625 
L 2419 4116 
z
M 2253 4666 
L 3047 4666 
L 3047 1625 
L 3713 1625 
L 3713 1100 
L 3047 1100 
L 3047 0 
L 2419 0 
L 2419 1100 
L 313 1100 
L 313 1709 
L 2253 4666 
z
" transform="scale(0.015625)"/>
       </defs>
       <use xlink:href="#DejaVuSans-34"/>
      </g>
     </g>
    </g>
    <g id="xtick_6">
     <g id="line2d_6">
      <g>
       <use xlink:href="#me510b37ede" x="301.145595" y="320.4" style="stroke: #000000; stroke-width: 0.8"/>
      </g>
     </g>
     <g id="text_6">
      <!-- 5 -->
      <g transform="translate(297.964345 334.998438) scale(0.1 -0.1)">
       <defs>
        <path id="DejaVuSans-35" d="M 691 4666 
L 3169 4666 
L 3169 4134 
L 1269 4134 
L 1269 2991 
Q 1406 3038 1543 3061 
Q 1681 3084 1819 3084 
Q 2600 3084 3056 2656 
Q 3513 2228 3513 1497 
Q 3513 744 3044 326 
Q 2575 -91 1722 -91 
Q 1428 -91 1123 -41 
Q 819 9 494 109 
L 494 744 
Q 775 591 1075 516 
Q 1375 441 1709 441 
Q 2250 441 2565 725 
Q 2881 1009 2881 1497 
Q 2881 1984 2565 2268 
Q 2250 2553 1709 2553 
Q 1456 2553 1204 2497 
Q 953 2441 691 2322 
L 691 4666 
z
" transform="scale(0.015625)"/>
       </defs>
       <use xlink:href="#DejaVuSans-35"/>
      </g>
     </g>
    </g>
    <g id="xtick_7">
     <g id="line2d_7">
      <g>
       <use xlink:href="#me510b37ede" x="314.186025" y="320.4" style="stroke: #000000; stroke-width: 0.8"/>
      </g>
     </g>
     <g id="text_7">
      <!-- 6 -->
      <g transform="translate(311.004775 334.998438) scale(0.1 -0.1)">
       <defs>
        <path id="DejaVuSans-36" d="M 2113 2584 
Q 1688 2584 1439 2293 
Q 1191 2003 1191 1497 
Q 1191 994 1439 701 
Q 1688 409 2113 409 
Q 2538 409 2786 701 
Q 3034 994 3034 1497 
Q 3034 2003 2786 2293 
Q 2538 2584 2113 2584 
z
M 3366 4563 
L 3366 3988 
Q 3128 4100 2886 4159 
Q 2644 4219 2406 4219 
Q 1781 4219 1451 3797 
Q 1122 3375 1075 2522 
Q 1259 2794 1537 2939 
Q 1816 3084 2150 3084 
Q 2853 3084 3261 2657 
Q 3669 2231 3669 1497 
Q 3669 778 3244 343 
Q 2819 -91 2113 -91 
Q 1303 -91 875 529 
Q 447 1150 447 2328 
Q 447 3434 972 4092 
Q 1497 4750 2381 4750 
Q 2619 4750 2861 4703 
Q 3103 4656 3366 4563 
z
" transform="scale(0.015625)"/>
       </defs>
       <use xlink:href="#DejaVuSans-36"/>
      </g>
     </g>
    </g>
    <g id="xtick_8">
     <g id="line2d_8">
      <g>
       <use xlink:href="#me510b37ede" x="327.226455" y="320.4" style="stroke: #000000; stroke-width: 0.8"/>
      </g>
     </g>
     <g id="text_8">
      <!-- 7 -->
      <g transform="translate(324.045205 334.998438) scale(0.1 -0.1)">
       <defs>
        <path id="DejaVuSans-37" d="M 525 4666 
L 3525 4666 
L 3525 4397 
L 1831 0 
L 1172 0 
L 2766 4134 
L 525 4134 
L 525 4666 
z
" transform="scale(0.015625)"/>
       </defs>
       <use xlink:href="#DejaVuSans-37"/>
      </g>
     </g>
    </g>
    <g id="xtick_9">
     <g id="line2d_9">
      <g>
       <use xlink:href="#me510b37ede" x="379.388175" y="320.4" style="stroke: #000000; stroke-width: 0.8"/>
      </g>
     </g>
     <g id="text_9">
      <!-- 11 -->
      <g transform="translate(373.025675 334.998438) scale(0.1 -0.1)">
       <use xlink:href="#DejaVuSans-31"/>
       <use xlink:href="#DejaVuSans-31" x="63.623047"/>
      </g>
     </g>
    </g>
    <g id="xtick_10">
     <g id="line2d_10">
      <g>
       <use xlink:href="#me510b37ede" x="340.266885" y="320.4" style="stroke: #000000; stroke-width: 0.8"/>
      </g>
     </g>
     <g id="text_10">
      <!-- 8 -->
      <g transform="translate(337.085635 334.998438) scale(0.1 -0.1)">
       <defs>
        <path id="DejaVuSans-38" d="M 2034 2216 
Q 1584 2216 1326 1975 
Q 1069 1734 1069 1313 
Q 1069 891 1326 650 
Q 1584 409 2034 409 
Q 2484 409 2743 651 
Q 3003 894 3003 1313 
Q 3003 1734 2745 1975 
Q 2488 2216 2034 2216 
z
M 1403 2484 
Q 997 2584 770 2862 
Q 544 3141 544 3541 
Q 544 4100 942 4425 
Q 1341 4750 2034 4750 
Q 2731 4750 3128 4425 
Q 3525 4100 3525 3541 
Q 3525 3141 3298 2862 
Q 3072 2584 2669 2484 
Q 3125 2378 3379 2068 
Q 3634 1759 3634 1313 
Q 3634 634 3220 271 
Q 2806 -91 2034 -91 
Q 1263 -91 848 271 
Q 434 634 434 1313 
Q 434 1759 690 2068 
Q 947 2378 1403 2484 
z
M 1172 3481 
Q 1172 3119 1398 2916 
Q 1625 2713 2034 2713 
Q 2441 2713 2670 2916 
Q 2900 3119 2900 3481 
Q 2900 3844 2670 4047 
Q 2441 4250 2034 4250 
Q 1625 4250 1398 4047 
Q 1172 3844 1172 3481 
z
" transform="scale(0.015625)"/>
       </defs>
       <use xlink:href="#DejaVuSans-38"/>
      </g>
     </g>
    </g>
    <g id="xtick_11">
     <g id="line2d_11">
      <g>
       <use xlink:href="#me510b37ede" x="457.630755" y="320.4" style="stroke: #000000; stroke-width: 0.8"/>
      </g>
     </g>
     <g id="text_11">
      <!-- 17 -->
      <g transform="translate(451.268255 334.998438) scale(0.1 -0.1)">
       <use xlink:href="#DejaVuSans-31"/>
       <use xlink:href="#DejaVuSans-37" x="63.623047"/>
      </g>
     </g>
    </g>
    <g id="xtick_12">
     <g id="line2d_12">
      <g>
       <use xlink:href="#me510b37ede" x="353.307315" y="320.4" style="stroke: #000000; stroke-width: 0.8"/>
      </g>
     </g>
     <g id="text_12">
      <!-- 9 -->
      <g transform="translate(350.126065 334.998438) scale(0.1 -0.1)">
       <defs>
        <path id="DejaVuSans-39" d="M 703 97 
L 703 672 
Q 941 559 1184 500 
Q 1428 441 1663 441 
Q 2288 441 2617 861 
Q 2947 1281 2994 2138 
Q 2813 1869 2534 1725 
Q 2256 1581 1919 1581 
Q 1219 1581 811 2004 
Q 403 2428 403 3163 
Q 403 3881 828 4315 
Q 1253 4750 1959 4750 
Q 2769 4750 3195 4129 
Q 3622 3509 3622 2328 
Q 3622 1225 3098 567 
Q 2575 -91 1691 -91 
Q 1453 -91 1209 -44 
Q 966 3 703 97 
z
M 1959 2075 
Q 2384 2075 2632 2365 
Q 2881 2656 2881 3163 
Q 2881 3666 2632 3958 
Q 2384 4250 1959 4250 
Q 1534 4250 1286 3958 
Q 1038 3666 1038 3163 
Q 1038 2656 1286 2365 
Q 1534 2075 1959 2075 
z
" transform="scale(0.015625)"/>
       </defs>
       <use xlink:href="#DejaVuSans-39"/>
      </g>
     </g>
    </g>
    <g id="xtick_13">
     <g id="line2d_13">
      <g>
       <use xlink:href="#me510b37ede" x="366.347745" y="320.4" style="stroke: #000000; stroke-width: 0.8"/>
      </g>
     </g>
     <g id="text_13">
      <!-- 10 -->
      <g transform="translate(359.985245 334.998438) scale(0.1 -0.1)">
       <use xlink:href="#DejaVuSans-31"/>
       <use xlink:href="#DejaVuSans-30" x="63.623047"/>
      </g>
     </g>
    </g>
    <g id="xtick_14">
     <g id="line2d_14">
      <g>
       <use xlink:href="#me510b37ede" x="392.428605" y="320.4" style="stroke: #000000; stroke-width: 0.8"/>
      </g>
     </g>
     <g id="text_14">
      <!-- 12 -->
      <g transform="translate(386.066105 334.998438) scale(0.1 -0.1)">
       <use xlink:href="#DejaVuSans-31"/>
       <use xlink:href="#DejaVuSans-32" x="63.623047"/>
      </g>
     </g>
    </g>
    <g id="xtick_15">
     <g id="line2d_15">
      <g>
       <use xlink:href="#me510b37ede" x="405.469035" y="320.4" style="stroke: #000000; stroke-width: 0.8"/>
      </g>
     </g>
     <g id="text_15">
      <!-- 13 -->
      <g transform="translate(399.106535 334.998438) scale(0.1 -0.1)">
       <use xlink:href="#DejaVuSans-31"/>
       <use xlink:href="#DejaVuSans-33" x="63.623047"/>
      </g>
     </g>
    </g>
    <g id="xtick_16">
     <g id="line2d_16">
      <g>
       <use xlink:href="#me510b37ede" x="418.509465" y="320.4" style="stroke: #000000; stroke-width: 0.8"/>
      </g>
     </g>
     <g id="text_16">
      <!-- 14 -->
      <g transform="translate(412.146965 334.998438) scale(0.1 -0.1)">
       <use xlink:href="#DejaVuSans-31"/>
       <use xlink:href="#DejaVuSans-34" x="63.623047"/>
      </g>
     </g>
    </g>
    <g id="xtick_17">
     <g id="line2d_17">
      <g>
       <use xlink:href="#me510b37ede" x="431.549895" y="320.4" style="stroke: #000000; stroke-width: 0.8"/>
      </g>
     </g>
     <g id="text_17">
      <!-- 15 -->
      <g transform="translate(425.187395 334.998438) scale(0.1 -0.1)">
       <use xlink:href="#DejaVuSans-31"/>
       <use xlink:href="#DejaVuSans-35" x="63.623047"/>
      </g>
     </g>
    </g>
    <g id="xtick_18">
     <g id="line2d_18">
      <g>
       <use xlink:href="#me510b37ede" x="535.873335" y="320.4" style="stroke: #000000; stroke-width: 0.8"/>
      </g>
     </g>
     <g id="text_18">
      <!-- 23 -->
      <g transform="translate(529.510835 334.998438) scale(0.1 -0.1)">
       <use xlink:href="#DejaVuSans-32"/>
       <use xlink:href="#DejaVuSans-33" x="63.623047"/>
      </g>
     </g>
    </g>
    <g id="xtick_19">
     <g id="line2d_19">
      <g>
       <use xlink:href="#me510b37ede" x="548.913765" y="320.4" style="stroke: #000000; stroke-width: 0.8"/>
      </g>
     </g>
     <g id="text_19">
      <!-- 24 -->
      <g transform="translate(542.551265 334.998438) scale(0.1 -0.1)">
       <use xlink:href="#DejaVuSans-32"/>
       <use xlink:href="#DejaVuSans-34" x="63.623047"/>
      </g>
     </g>
    </g>
    <g id="xtick_20">
     <g id="line2d_20">
      <g>
       <use xlink:href="#me510b37ede" x="470.671185" y="320.4" style="stroke: #000000; stroke-width: 0.8"/>
      </g>
     </g>
     <g id="text_20">
      <!-- 18 -->
      <g transform="translate(464.308685 334.998438) scale(0.1 -0.1)">
       <use xlink:href="#DejaVuSans-31"/>
       <use xlink:href="#DejaVuSans-38" x="63.623047"/>
      </g>
     </g>
    </g>
    <g id="xtick_21">
     <g id="line2d_21">
      <g>
       <use xlink:href="#me510b37ede" x="561.954195" y="320.4" style="stroke: #000000; stroke-width: 0.8"/>
      </g>
     </g>
     <g id="text_21">
      <!-- 25 -->
      <g transform="translate(555.591695 334.998438) scale(0.1 -0.1)">
       <use xlink:href="#DejaVuSans-32"/>
       <use xlink:href="#DejaVuSans-35" x="63.623047"/>
      </g>
     </g>
    </g>
    <g id="xtick_22">
     <g id="line2d_22">
      <g>
       <use xlink:href="#me510b37ede" x="848.843655" y="320.4" style="stroke: #000000; stroke-width: 0.8"/>
      </g>
     </g>
     <g id="text_22">
      <!-- 47 -->
      <g transform="translate(842.481155 334.998438) scale(0.1 -0.1)">
       <use xlink:href="#DejaVuSans-34"/>
       <use xlink:href="#DejaVuSans-37" x="63.623047"/>
      </g>
     </g>
    </g>
    <g id="xtick_23">
     <g id="line2d_23">
      <g>
       <use xlink:href="#me510b37ede" x="588.035055" y="320.4" style="stroke: #000000; stroke-width: 0.8"/>
      </g>
     </g>
     <g id="text_23">
      <!-- 27 -->
      <g transform="translate(581.672555 334.998438) scale(0.1 -0.1)">
       <use xlink:href="#DejaVuSans-32"/>
       <use xlink:href="#DejaVuSans-37" x="63.623047"/>
      </g>
     </g>
    </g>
    <g id="xtick_24">
     <g id="line2d_24">
      <g>
       <use xlink:href="#me510b37ede" x="444.590325" y="320.4" style="stroke: #000000; stroke-width: 0.8"/>
      </g>
     </g>
     <g id="text_24">
      <!-- 16 -->
      <g transform="translate(438.227825 334.998438) scale(0.1 -0.1)">
       <use xlink:href="#DejaVuSans-31"/>
       <use xlink:href="#DejaVuSans-36" x="63.623047"/>
      </g>
     </g>
    </g>
    <g id="xtick_25">
     <g id="line2d_25">
      <g>
       <use xlink:href="#me510b37ede" x="744.520215" y="320.4" style="stroke: #000000; stroke-width: 0.8"/>
      </g>
     </g>
     <g id="text_25">
      <!-- 39 -->
      <g transform="translate(738.157715 334.998438) scale(0.1 -0.1)">
       <use xlink:href="#DejaVuSans-33"/>
       <use xlink:href="#DejaVuSans-39" x="63.623047"/>
      </g>
     </g>
    </g>
    <g id="xtick_26">
     <g id="line2d_26">
      <g>
       <use xlink:href="#me510b37ede" x="1083.571395" y="320.4" style="stroke: #000000; stroke-width: 0.8"/>
      </g>
     </g>
     <g id="text_26">
      <!-- 65 -->
      <g transform="translate(1077.208895 334.998438) scale(0.1 -0.1)">
       <use xlink:href="#DejaVuSans-36"/>
       <use xlink:href="#DejaVuSans-35" x="63.623047"/>
      </g>
     </g>
    </g>
    <g id="xtick_27">
     <g id="line2d_27">
      <g>
       <use xlink:href="#me510b37ede" x="483.711615" y="320.4" style="stroke: #000000; stroke-width: 0.8"/>
      </g>
     </g>
     <g id="text_27">
      <!-- 19 -->
      <g transform="translate(477.349115 334.998438) scale(0.1 -0.1)">
       <use xlink:href="#DejaVuSans-31"/>
       <use xlink:href="#DejaVuSans-39" x="63.623047"/>
      </g>
     </g>
    </g>
    <g id="xtick_28">
     <g id="line2d_28">
      <g>
       <use xlink:href="#me510b37ede" x="1057.490535" y="320.4" style="stroke: #000000; stroke-width: 0.8"/>
      </g>
     </g>
     <g id="text_28">
      <!-- 63 -->
      <g transform="translate(1051.128035 334.998438) scale(0.1 -0.1)">
       <use xlink:href="#DejaVuSans-36"/>
       <use xlink:href="#DejaVuSans-33" x="63.623047"/>
      </g>
     </g>
    </g>
    <g id="xtick_29">
     <g id="line2d_29">
      <g>
       <use xlink:href="#me510b37ede" x="509.792475" y="320.4" style="stroke: #000000; stroke-width: 0.8"/>
      </g>
     </g>
     <g id="text_29">
      <!-- 21 -->
      <g transform="translate(503.429975 334.998438) scale(0.1 -0.1)">
       <use xlink:href="#DejaVuSans-32"/>
       <use xlink:href="#DejaVuSans-31" x="63.623047"/>
      </g>
     </g>
    </g>
    <g id="xtick_30">
     <g id="line2d_30">
      <g>
       <use xlink:href="#me510b37ede" x="757.560645" y="320.4" style="stroke: #000000; stroke-width: 0.8"/>
      </g>
     </g>
     <g id="text_30">
      <!-- 40 -->
      <g transform="translate(751.198145 334.998438) scale(0.1 -0.1)">
       <use xlink:href="#DejaVuSans-34"/>
       <use xlink:href="#DejaVuSans-30" x="63.623047"/>
      </g>
     </g>
    </g>
    <g id="xtick_31">
     <g id="line2d_31">
      <g>
       <use xlink:href="#me510b37ede" x="1240.056555" y="320.4" style="stroke: #000000; stroke-width: 0.8"/>
      </g>
     </g>
     <g id="text_31">
      <!-- 77 -->
      <g transform="translate(1233.694055 334.998438) scale(0.1 -0.1)">
       <use xlink:href="#DejaVuSans-37"/>
       <use xlink:href="#DejaVuSans-37" x="63.623047"/>
      </g>
     </g>
    </g>
    <g id="xtick_32">
     <g id="line2d_32">
      <g>
       <use xlink:href="#me510b37ede" x="496.752045" y="320.4" style="stroke: #000000; stroke-width: 0.8"/>
      </g>
     </g>
     <g id="text_32">
      <!-- 20 -->
      <g transform="translate(490.389545 334.998438) scale(0.1 -0.1)">
       <use xlink:href="#DejaVuSans-32"/>
       <use xlink:href="#DejaVuSans-30" x="63.623047"/>
      </g>
     </g>
    </g>
    <g id="xtick_33">
     <g id="line2d_33">
      <g>
       <use xlink:href="#me510b37ede" x="522.832905" y="320.4" style="stroke: #000000; stroke-width: 0.8"/>
      </g>
     </g>
     <g id="text_33">
      <!-- 22 -->
      <g transform="translate(516.470405 334.998438) scale(0.1 -0.1)">
       <use xlink:href="#DejaVuSans-32"/>
       <use xlink:href="#DejaVuSans-32" x="63.623047"/>
      </g>
     </g>
    </g>
    <g id="xtick_34">
     <g id="line2d_34">
      <g>
       <use xlink:href="#me510b37ede" x="705.398925" y="320.4" style="stroke: #000000; stroke-width: 0.8"/>
      </g>
     </g>
     <g id="text_34">
      <!-- 36 -->
      <g transform="translate(699.036425 334.998438) scale(0.1 -0.1)">
       <use xlink:href="#DejaVuSans-33"/>
       <use xlink:href="#DejaVuSans-36" x="63.623047"/>
      </g>
     </g>
    </g>
    <g id="xtick_35">
     <g id="line2d_35">
      <g>
       <use xlink:href="#me510b37ede" x="601.075485" y="320.4" style="stroke: #000000; stroke-width: 0.8"/>
      </g>
     </g>
     <g id="text_35">
      <!-- 28 -->
      <g transform="translate(594.712985 334.998438) scale(0.1 -0.1)">
       <use xlink:href="#DejaVuSans-32"/>
       <use xlink:href="#DejaVuSans-38" x="63.623047"/>
      </g>
     </g>
    </g>
    <g id="xtick_36">
     <g id="line2d_36">
      <g>
       <use xlink:href="#me510b37ede" x="1096.611825" y="320.4" style="stroke: #000000; stroke-width: 0.8"/>
      </g>
     </g>
     <g id="text_36">
      <!-- 66 -->
      <g transform="translate(1090.249325 334.998438) scale(0.1 -0.1)">
       <use xlink:href="#DejaVuSans-36"/>
       <use xlink:href="#DejaVuSans-36" x="63.623047"/>
      </g>
     </g>
    </g>
    <g id="text_37">
     <!-- num_emoji -->
     <g transform="translate(710.507812 348.676562) scale(0.1 -0.1)">
      <defs>
       <path id="DejaVuSans-6e" d="M 3513 2113 
L 3513 0 
L 2938 0 
L 2938 2094 
Q 2938 2591 2744 2837 
Q 2550 3084 2163 3084 
Q 1697 3084 1428 2787 
Q 1159 2491 1159 1978 
L 1159 0 
L 581 0 
L 581 3500 
L 1159 3500 
L 1159 2956 
Q 1366 3272 1645 3428 
Q 1925 3584 2291 3584 
Q 2894 3584 3203 3211 
Q 3513 2838 3513 2113 
z
" transform="scale(0.015625)"/>
       <path id="DejaVuSans-75" d="M 544 1381 
L 544 3500 
L 1119 3500 
L 1119 1403 
Q 1119 906 1312 657 
Q 1506 409 1894 409 
Q 2359 409 2629 706 
Q 2900 1003 2900 1516 
L 2900 3500 
L 3475 3500 
L 3475 0 
L 2900 0 
L 2900 538 
Q 2691 219 2414 64 
Q 2138 -91 1772 -91 
Q 1169 -91 856 284 
Q 544 659 544 1381 
z
M 1991 3584 
L 1991 3584 
z
" transform="scale(0.015625)"/>
       <path id="DejaVuSans-6d" d="M 3328 2828 
Q 3544 3216 3844 3400 
Q 4144 3584 4550 3584 
Q 5097 3584 5394 3201 
Q 5691 2819 5691 2113 
L 5691 0 
L 5113 0 
L 5113 2094 
Q 5113 2597 4934 2840 
Q 4756 3084 4391 3084 
Q 3944 3084 3684 2787 
Q 3425 2491 3425 1978 
L 3425 0 
L 2847 0 
L 2847 2094 
Q 2847 2600 2669 2842 
Q 2491 3084 2119 3084 
Q 1678 3084 1418 2786 
Q 1159 2488 1159 1978 
L 1159 0 
L 581 0 
L 581 3500 
L 1159 3500 
L 1159 2956 
Q 1356 3278 1631 3431 
Q 1906 3584 2284 3584 
Q 2666 3584 2933 3390 
Q 3200 3197 3328 2828 
z
" transform="scale(0.015625)"/>
       <path id="DejaVuSans-5f" d="M 3263 -1063 
L 3263 -1509 
L -63 -1509 
L -63 -1063 
L 3263 -1063 
z
" transform="scale(0.015625)"/>
       <path id="DejaVuSans-65" d="M 3597 1894 
L 3597 1613 
L 953 1613 
Q 991 1019 1311 708 
Q 1631 397 2203 397 
Q 2534 397 2845 478 
Q 3156 559 3463 722 
L 3463 178 
Q 3153 47 2828 -22 
Q 2503 -91 2169 -91 
Q 1331 -91 842 396 
Q 353 884 353 1716 
Q 353 2575 817 3079 
Q 1281 3584 2069 3584 
Q 2775 3584 3186 3129 
Q 3597 2675 3597 1894 
z
M 3022 2063 
Q 3016 2534 2758 2815 
Q 2500 3097 2075 3097 
Q 1594 3097 1305 2825 
Q 1016 2553 972 2059 
L 3022 2063 
z
" transform="scale(0.015625)"/>
       <path id="DejaVuSans-6f" d="M 1959 3097 
Q 1497 3097 1228 2736 
Q 959 2375 959 1747 
Q 959 1119 1226 758 
Q 1494 397 1959 397 
Q 2419 397 2687 759 
Q 2956 1122 2956 1747 
Q 2956 2369 2687 2733 
Q 2419 3097 1959 3097 
z
M 1959 3584 
Q 2709 3584 3137 3096 
Q 3566 2609 3566 1747 
Q 3566 888 3137 398 
Q 2709 -91 1959 -91 
Q 1206 -91 779 398 
Q 353 888 353 1747 
Q 353 2609 779 3096 
Q 1206 3584 1959 3584 
z
" transform="scale(0.015625)"/>
       <path id="DejaVuSans-6a" d="M 603 3500 
L 1178 3500 
L 1178 -63 
Q 1178 -731 923 -1031 
Q 669 -1331 103 -1331 
L -116 -1331 
L -116 -844 
L 38 -844 
Q 366 -844 484 -692 
Q 603 -541 603 -63 
L 603 3500 
z
M 603 4863 
L 1178 4863 
L 1178 4134 
L 603 4134 
L 603 4863 
z
" transform="scale(0.015625)"/>
       <path id="DejaVuSans-69" d="M 603 3500 
L 1178 3500 
L 1178 0 
L 603 0 
L 603 3500 
z
M 603 4863 
L 1178 4863 
L 1178 4134 
L 603 4134 
L 603 4863 
z
" transform="scale(0.015625)"/>
      </defs>
      <use xlink:href="#DejaVuSans-6e"/>
      <use xlink:href="#DejaVuSans-75" x="63.378906"/>
      <use xlink:href="#DejaVuSans-6d" x="126.757812"/>
      <use xlink:href="#DejaVuSans-5f" x="224.169922"/>
      <use xlink:href="#DejaVuSans-65" x="274.169922"/>
      <use xlink:href="#DejaVuSans-6d" x="335.693359"/>
      <use xlink:href="#DejaVuSans-6f" x="433.105469"/>
      <use xlink:href="#DejaVuSans-6a" x="494.287109"/>
      <use xlink:href="#DejaVuSans-69" x="522.070312"/>
     </g>
    </g>
   </g>
   <g id="matplotlib.axis_2">
    <g id="ytick_1">
     <g id="line2d_37">
      <defs>
       <path id="mf2947bc3a6" d="M 0 0 
L -3.5 0 
" style="stroke: #000000; stroke-width: 0.8"/>
      </defs>
      <g>
       <use xlink:href="#mf2947bc3a6" x="180" y="320.4" style="stroke: #000000; stroke-width: 0.8"/>
      </g>
     </g>
     <g id="text_38">
      <!-- 0.0 -->
      <g transform="translate(157.096875 324.199219) scale(0.1 -0.1)">
       <defs>
        <path id="DejaVuSans-2e" d="M 684 794 
L 1344 794 
L 1344 0 
L 684 0 
L 684 794 
z
" transform="scale(0.015625)"/>
       </defs>
       <use xlink:href="#DejaVuSans-30"/>
       <use xlink:href="#DejaVuSans-2e" x="63.623047"/>
       <use xlink:href="#DejaVuSans-30" x="95.410156"/>
      </g>
     </g>
    </g>
    <g id="ytick_2">
     <g id="line2d_38">
      <g>
       <use xlink:href="#mf2947bc3a6" x="180" y="264.64049" style="stroke: #000000; stroke-width: 0.8"/>
      </g>
     </g>
     <g id="text_39">
      <!-- 0.5 -->
      <g transform="translate(157.096875 268.439709) scale(0.1 -0.1)">
       <use xlink:href="#DejaVuSans-30"/>
       <use xlink:href="#DejaVuSans-2e" x="63.623047"/>
       <use xlink:href="#DejaVuSans-35" x="95.410156"/>
      </g>
     </g>
    </g>
    <g id="ytick_3">
     <g id="line2d_39">
      <g>
       <use xlink:href="#mf2947bc3a6" x="180" y="208.88098" style="stroke: #000000; stroke-width: 0.8"/>
      </g>
     </g>
     <g id="text_40">
      <!-- 1.0 -->
      <g transform="translate(157.096875 212.680199) scale(0.1 -0.1)">
       <use xlink:href="#DejaVuSans-31"/>
       <use xlink:href="#DejaVuSans-2e" x="63.623047"/>
       <use xlink:href="#DejaVuSans-30" x="95.410156"/>
      </g>
     </g>
    </g>
    <g id="ytick_4">
     <g id="line2d_40">
      <g>
       <use xlink:href="#mf2947bc3a6" x="180" y="153.12147" style="stroke: #000000; stroke-width: 0.8"/>
      </g>
     </g>
     <g id="text_41">
      <!-- 1.5 -->
      <g transform="translate(157.096875 156.920688) scale(0.1 -0.1)">
       <use xlink:href="#DejaVuSans-31"/>
       <use xlink:href="#DejaVuSans-2e" x="63.623047"/>
       <use xlink:href="#DejaVuSans-35" x="95.410156"/>
      </g>
     </g>
    </g>
    <g id="ytick_5">
     <g id="line2d_41">
      <g>
       <use xlink:href="#mf2947bc3a6" x="180" y="97.36196" style="stroke: #000000; stroke-width: 0.8"/>
      </g>
     </g>
     <g id="text_42">
      <!-- 2.0 -->
      <g transform="translate(157.096875 101.161178) scale(0.1 -0.1)">
       <use xlink:href="#DejaVuSans-32"/>
       <use xlink:href="#DejaVuSans-2e" x="63.623047"/>
       <use xlink:href="#DejaVuSans-30" x="95.410156"/>
      </g>
     </g>
    </g>
    <g id="text_43">
     <!-- frequency -->
     <g transform="translate(151.017188 206.876562) rotate(-90) scale(0.1 -0.1)">
      <defs>
       <path id="DejaVuSans-66" d="M 2375 4863 
L 2375 4384 
L 1825 4384 
Q 1516 4384 1395 4259 
Q 1275 4134 1275 3809 
L 1275 3500 
L 2222 3500 
L 2222 3053 
L 1275 3053 
L 1275 0 
L 697 0 
L 697 3053 
L 147 3053 
L 147 3500 
L 697 3500 
L 697 3744 
Q 697 4328 969 4595 
Q 1241 4863 1831 4863 
L 2375 4863 
z
" transform="scale(0.015625)"/>
       <path id="DejaVuSans-72" d="M 2631 2963 
Q 2534 3019 2420 3045 
Q 2306 3072 2169 3072 
Q 1681 3072 1420 2755 
Q 1159 2438 1159 1844 
L 1159 0 
L 581 0 
L 581 3500 
L 1159 3500 
L 1159 2956 
Q 1341 3275 1631 3429 
Q 1922 3584 2338 3584 
Q 2397 3584 2469 3576 
Q 2541 3569 2628 3553 
L 2631 2963 
z
" transform="scale(0.015625)"/>
       <path id="DejaVuSans-71" d="M 947 1747 
Q 947 1113 1208 752 
Q 1469 391 1925 391 
Q 2381 391 2643 752 
Q 2906 1113 2906 1747 
Q 2906 2381 2643 2742 
Q 2381 3103 1925 3103 
Q 1469 3103 1208 2742 
Q 947 2381 947 1747 
z
M 2906 525 
Q 2725 213 2448 61 
Q 2172 -91 1784 -91 
Q 1150 -91 751 415 
Q 353 922 353 1747 
Q 353 2572 751 3078 
Q 1150 3584 1784 3584 
Q 2172 3584 2448 3432 
Q 2725 3281 2906 2969 
L 2906 3500 
L 3481 3500 
L 3481 -1331 
L 2906 -1331 
L 2906 525 
z
" transform="scale(0.015625)"/>
       <path id="DejaVuSans-63" d="M 3122 3366 
L 3122 2828 
Q 2878 2963 2633 3030 
Q 2388 3097 2138 3097 
Q 1578 3097 1268 2742 
Q 959 2388 959 1747 
Q 959 1106 1268 751 
Q 1578 397 2138 397 
Q 2388 397 2633 464 
Q 2878 531 3122 666 
L 3122 134 
Q 2881 22 2623 -34 
Q 2366 -91 2075 -91 
Q 1284 -91 818 406 
Q 353 903 353 1747 
Q 353 2603 823 3093 
Q 1294 3584 2113 3584 
Q 2378 3584 2631 3529 
Q 2884 3475 3122 3366 
z
" transform="scale(0.015625)"/>
       <path id="DejaVuSans-79" d="M 2059 -325 
Q 1816 -950 1584 -1140 
Q 1353 -1331 966 -1331 
L 506 -1331 
L 506 -850 
L 844 -850 
Q 1081 -850 1212 -737 
Q 1344 -625 1503 -206 
L 1606 56 
L 191 3500 
L 800 3500 
L 1894 763 
L 2988 3500 
L 3597 3500 
L 2059 -325 
z
" transform="scale(0.015625)"/>
      </defs>
      <use xlink:href="#DejaVuSans-66"/>
      <use xlink:href="#DejaVuSans-72" x="35.205078"/>
      <use xlink:href="#DejaVuSans-65" x="74.068359"/>
      <use xlink:href="#DejaVuSans-71" x="135.591797"/>
      <use xlink:href="#DejaVuSans-75" x="199.068359"/>
      <use xlink:href="#DejaVuSans-65" x="262.447266"/>
      <use xlink:href="#DejaVuSans-6e" x="323.970703"/>
      <use xlink:href="#DejaVuSans-63" x="387.349609"/>
      <use xlink:href="#DejaVuSans-79" x="442.330078"/>
     </g>
    </g>
   </g>
   <g id="patch_111">
    <path d="M 180 320.4 
L 180 43.2 
" style="fill: none; stroke: #000000; stroke-width: 0.8; stroke-linejoin: miter; stroke-linecap: square"/>
   </g>
   <g id="patch_112">
    <path d="M 1296 320.4 
L 1296 43.2 
" style="fill: none; stroke: #000000; stroke-width: 0.8; stroke-linejoin: miter; stroke-linecap: square"/>
   </g>
   <g id="patch_113">
    <path d="M 180 320.4 
L 1296 320.4 
" style="fill: none; stroke: #000000; stroke-width: 0.8; stroke-linejoin: miter; stroke-linecap: square"/>
   </g>
   <g id="patch_114">
    <path d="M 180 43.2 
L 1296 43.2 
" style="fill: none; stroke: #000000; stroke-width: 0.8; stroke-linejoin: miter; stroke-linecap: square"/>
   </g>
   <g id="text_44">
    <!-- Number of emoji among 3 classes -->
    <g transform="translate(635.704687 37.2) scale(0.12 -0.12)">
     <defs>
      <path id="DejaVuSans-4e" d="M 628 4666 
L 1478 4666 
L 3547 763 
L 3547 4666 
L 4159 4666 
L 4159 0 
L 3309 0 
L 1241 3903 
L 1241 0 
L 628 0 
L 628 4666 
z
" transform="scale(0.015625)"/>
      <path id="DejaVuSans-62" d="M 3116 1747 
Q 3116 2381 2855 2742 
Q 2594 3103 2138 3103 
Q 1681 3103 1420 2742 
Q 1159 2381 1159 1747 
Q 1159 1113 1420 752 
Q 1681 391 2138 391 
Q 2594 391 2855 752 
Q 3116 1113 3116 1747 
z
M 1159 2969 
Q 1341 3281 1617 3432 
Q 1894 3584 2278 3584 
Q 2916 3584 3314 3078 
Q 3713 2572 3713 1747 
Q 3713 922 3314 415 
Q 2916 -91 2278 -91 
Q 1894 -91 1617 61 
Q 1341 213 1159 525 
L 1159 0 
L 581 0 
L 581 4863 
L 1159 4863 
L 1159 2969 
z
" transform="scale(0.015625)"/>
      <path id="DejaVuSans-20" transform="scale(0.015625)"/>
      <path id="DejaVuSans-61" d="M 2194 1759 
Q 1497 1759 1228 1600 
Q 959 1441 959 1056 
Q 959 750 1161 570 
Q 1363 391 1709 391 
Q 2188 391 2477 730 
Q 2766 1069 2766 1631 
L 2766 1759 
L 2194 1759 
z
M 3341 1997 
L 3341 0 
L 2766 0 
L 2766 531 
Q 2569 213 2275 61 
Q 1981 -91 1556 -91 
Q 1019 -91 701 211 
Q 384 513 384 1019 
Q 384 1609 779 1909 
Q 1175 2209 1959 2209 
L 2766 2209 
L 2766 2266 
Q 2766 2663 2505 2880 
Q 2244 3097 1772 3097 
Q 1472 3097 1187 3025 
Q 903 2953 641 2809 
L 641 3341 
Q 956 3463 1253 3523 
Q 1550 3584 1831 3584 
Q 2591 3584 2966 3190 
Q 3341 2797 3341 1997 
z
" transform="scale(0.015625)"/>
      <path id="DejaVuSans-67" d="M 2906 1791 
Q 2906 2416 2648 2759 
Q 2391 3103 1925 3103 
Q 1463 3103 1205 2759 
Q 947 2416 947 1791 
Q 947 1169 1205 825 
Q 1463 481 1925 481 
Q 2391 481 2648 825 
Q 2906 1169 2906 1791 
z
M 3481 434 
Q 3481 -459 3084 -895 
Q 2688 -1331 1869 -1331 
Q 1566 -1331 1297 -1286 
Q 1028 -1241 775 -1147 
L 775 -588 
Q 1028 -725 1275 -790 
Q 1522 -856 1778 -856 
Q 2344 -856 2625 -561 
Q 2906 -266 2906 331 
L 2906 616 
Q 2728 306 2450 153 
Q 2172 0 1784 0 
Q 1141 0 747 490 
Q 353 981 353 1791 
Q 353 2603 747 3093 
Q 1141 3584 1784 3584 
Q 2172 3584 2450 3431 
Q 2728 3278 2906 2969 
L 2906 3500 
L 3481 3500 
L 3481 434 
z
" transform="scale(0.015625)"/>
      <path id="DejaVuSans-6c" d="M 603 4863 
L 1178 4863 
L 1178 0 
L 603 0 
L 603 4863 
z
" transform="scale(0.015625)"/>
      <path id="DejaVuSans-73" d="M 2834 3397 
L 2834 2853 
Q 2591 2978 2328 3040 
Q 2066 3103 1784 3103 
Q 1356 3103 1142 2972 
Q 928 2841 928 2578 
Q 928 2378 1081 2264 
Q 1234 2150 1697 2047 
L 1894 2003 
Q 2506 1872 2764 1633 
Q 3022 1394 3022 966 
Q 3022 478 2636 193 
Q 2250 -91 1575 -91 
Q 1294 -91 989 -36 
Q 684 19 347 128 
L 347 722 
Q 666 556 975 473 
Q 1284 391 1588 391 
Q 1994 391 2212 530 
Q 2431 669 2431 922 
Q 2431 1156 2273 1281 
Q 2116 1406 1581 1522 
L 1381 1569 
Q 847 1681 609 1914 
Q 372 2147 372 2553 
Q 372 3047 722 3315 
Q 1072 3584 1716 3584 
Q 2034 3584 2315 3537 
Q 2597 3491 2834 3397 
z
" transform="scale(0.015625)"/>
     </defs>
     <use xlink:href="#DejaVuSans-4e"/>
     <use xlink:href="#DejaVuSans-75" x="74.804688"/>
     <use xlink:href="#DejaVuSans-6d" x="138.183594"/>
     <use xlink:href="#DejaVuSans-62" x="235.595703"/>
     <use xlink:href="#DejaVuSans-65" x="299.072266"/>
     <use xlink:href="#DejaVuSans-72" x="360.595703"/>
     <use xlink:href="#DejaVuSans-20" x="401.708984"/>
     <use xlink:href="#DejaVuSans-6f" x="433.496094"/>
     <use xlink:href="#DejaVuSans-66" x="494.677734"/>
     <use xlink:href="#DejaVuSans-20" x="529.882812"/>
     <use xlink:href="#DejaVuSans-65" x="561.669922"/>
     <use xlink:href="#DejaVuSans-6d" x="623.193359"/>
     <use xlink:href="#DejaVuSans-6f" x="720.605469"/>
     <use xlink:href="#DejaVuSans-6a" x="781.787109"/>
     <use xlink:href="#DejaVuSans-69" x="809.570312"/>
     <use xlink:href="#DejaVuSans-20" x="837.353516"/>
     <use xlink:href="#DejaVuSans-61" x="869.140625"/>
     <use xlink:href="#DejaVuSans-6d" x="930.419922"/>
     <use xlink:href="#DejaVuSans-6f" x="1027.832031"/>
     <use xlink:href="#DejaVuSans-6e" x="1089.013672"/>
     <use xlink:href="#DejaVuSans-67" x="1152.392578"/>
     <use xlink:href="#DejaVuSans-20" x="1215.869141"/>
     <use xlink:href="#DejaVuSans-33" x="1247.65625"/>
     <use xlink:href="#DejaVuSans-20" x="1311.279297"/>
     <use xlink:href="#DejaVuSans-63" x="1343.066406"/>
     <use xlink:href="#DejaVuSans-6c" x="1398.046875"/>
     <use xlink:href="#DejaVuSans-61" x="1425.830078"/>
     <use xlink:href="#DejaVuSans-73" x="1487.109375"/>
     <use xlink:href="#DejaVuSans-73" x="1539.208984"/>
     <use xlink:href="#DejaVuSans-65" x="1591.308594"/>
     <use xlink:href="#DejaVuSans-73" x="1652.832031"/>
    </g>
   </g>
   <g id="legend_1">
    <g id="patch_115">
     <path d="M 1211.290625 95.234375 
L 1289 95.234375 
Q 1291 95.234375 1291 93.234375 
L 1291 50.2 
Q 1291 48.2 1289 48.2 
L 1211.290625 48.2 
Q 1209.290625 48.2 1209.290625 50.2 
L 1209.290625 93.234375 
Q 1209.290625 95.234375 1211.290625 95.234375 
z
" style="fill: #ffffff; opacity: 0.8; stroke: #cccccc; stroke-linejoin: miter"/>
    </g>
    <g id="patch_116">
     <path d="M 1213.290625 59.798437 
L 1233.290625 59.798437 
L 1233.290625 52.798437 
L 1213.290625 52.798437 
z
" style="fill: #1f77b4"/>
    </g>
    <g id="text_45">
     <!-- hate -->
     <g transform="translate(1241.290625 59.798437) scale(0.1 -0.1)">
      <defs>
       <path id="DejaVuSans-68" d="M 3513 2113 
L 3513 0 
L 2938 0 
L 2938 2094 
Q 2938 2591 2744 2837 
Q 2550 3084 2163 3084 
Q 1697 3084 1428 2787 
Q 1159 2491 1159 1978 
L 1159 0 
L 581 0 
L 581 4863 
L 1159 4863 
L 1159 2956 
Q 1366 3272 1645 3428 
Q 1925 3584 2291 3584 
Q 2894 3584 3203 3211 
Q 3513 2838 3513 2113 
z
" transform="scale(0.015625)"/>
       <path id="DejaVuSans-74" d="M 1172 4494 
L 1172 3500 
L 2356 3500 
L 2356 3053 
L 1172 3053 
L 1172 1153 
Q 1172 725 1289 603 
Q 1406 481 1766 481 
L 2356 481 
L 2356 0 
L 1766 0 
Q 1100 0 847 248 
Q 594 497 594 1153 
L 594 3053 
L 172 3053 
L 172 3500 
L 594 3500 
L 594 4494 
L 1172 4494 
z
" transform="scale(0.015625)"/>
      </defs>
      <use xlink:href="#DejaVuSans-68"/>
      <use xlink:href="#DejaVuSans-61" x="63.378906"/>
      <use xlink:href="#DejaVuSans-74" x="124.658203"/>
      <use xlink:href="#DejaVuSans-65" x="163.867188"/>
     </g>
    </g>
    <g id="patch_117">
     <path d="M 1213.290625 74.476562 
L 1233.290625 74.476562 
L 1233.290625 67.476562 
L 1213.290625 67.476562 
z
" style="fill: #ff7f0e"/>
    </g>
    <g id="text_46">
     <!-- offensive -->
     <g transform="translate(1241.290625 74.476562) scale(0.1 -0.1)">
      <defs>
       <path id="DejaVuSans-76" d="M 191 3500 
L 800 3500 
L 1894 563 
L 2988 3500 
L 3597 3500 
L 2284 0 
L 1503 0 
L 191 3500 
z
" transform="scale(0.015625)"/>
      </defs>
      <use xlink:href="#DejaVuSans-6f"/>
      <use xlink:href="#DejaVuSans-66" x="61.181641"/>
      <use xlink:href="#DejaVuSans-66" x="96.386719"/>
      <use xlink:href="#DejaVuSans-65" x="131.591797"/>
      <use xlink:href="#DejaVuSans-6e" x="193.115234"/>
      <use xlink:href="#DejaVuSans-73" x="256.494141"/>
      <use xlink:href="#DejaVuSans-69" x="308.59375"/>
      <use xlink:href="#DejaVuSans-76" x="336.376953"/>
      <use xlink:href="#DejaVuSans-65" x="395.556641"/>
     </g>
    </g>
    <g id="patch_118">
     <path d="M 1213.290625 89.154687 
L 1233.290625 89.154687 
L 1233.290625 82.154687 
L 1213.290625 82.154687 
z
" style="fill: #2ca02c"/>
    </g>
    <g id="text_47">
     <!-- normal -->
     <g transform="translate(1241.290625 89.154687) scale(0.1 -0.1)">
      <use xlink:href="#DejaVuSans-6e"/>
      <use xlink:href="#DejaVuSans-6f" x="63.378906"/>
      <use xlink:href="#DejaVuSans-72" x="124.560547"/>
      <use xlink:href="#DejaVuSans-6d" x="163.923828"/>
      <use xlink:href="#DejaVuSans-61" x="261.335938"/>
      <use xlink:href="#DejaVuSans-6c" x="322.615234"/>
     </g>
    </g>
   </g>
  </g>
 </g>
 <defs>
  <clipPath id="p679b5b684c">
   <rect x="180" y="43.2" width="1116" height="277.2"/>
  </clipPath>
 </defs>
</svg>
